<svg width="24" height="24" viewBox="0 0 24 24" fill="none" xmlns="http://www.w3.org/2000/svg">
<path d="M18.04 13.55C17.62 13.96 17.38 14.55 17.44 15.18C17.53 16.26 18.52 17.05 19.6 17.05H21.5V18.24C21.5 20.31 19.81 22 17.74 22H7.63C7.94 21.74 8.21 21.42 8.42 21.06C8.79 20.46 9 19.75 9 19C8.99992 18.2464 8.78693 17.5083 8.38558 16.8705C7.98422 16.2327 7.41084 15.7213 6.73149 15.3952C6.05215 15.0691 5.29449 14.9416 4.54584 15.0274C3.79718 15.1132 3.088 15.4087 2.5 15.88V11.51C2.5 9.44 4.19 7.75 6.26 7.75H17.74C19.81 7.75 21.5 9.44 21.5 11.51V12.95H19.48C18.92 12.95 18.41 13.17 18.04 13.55Z" stroke="white" stroke-width="1.5" stroke-linecap="round" stroke-linejoin="round"/>
<path d="M2.5 12.4099V7.8399C2.5 6.6499 3.23 5.5899 4.34 5.1699L12.28 2.1699C12.5677 2.06149 12.8774 2.02451 13.1825 2.06213C13.4876 2.09975 13.7791 2.21086 14.0318 2.38591C14.2846 2.56095 14.491 2.79472 14.6335 3.06713C14.7761 3.33954 14.8503 3.64247 14.85 3.9499V7.7499M7 11.9999H14M22.559 13.9699V16.0299C22.559 16.5799 22.119 17.0299 21.559 17.0499H19.599C18.519 17.0499 17.529 16.2599 17.439 15.1799C17.379 14.5499 17.619 13.9599 18.039 13.5499C18.409 13.1699 18.919 12.9499 19.479 12.9499H21.559C22.119 12.9699 22.559 13.4199 22.559 13.9699Z" stroke="white" stroke-width="1.5" stroke-linecap="round" stroke-linejoin="round"/>
<path d="M6.492 18.9796H3.512M5 17.5196V20.5096M9 18.9996C9 19.7496 8.79 20.4596 8.42 21.0596C8.21 21.4196 7.94 21.7396 7.63 21.9996C6.93 22.6296 6.01 22.9996 5 22.9996C4.31056 23.001 3.63264 22.8229 3.03296 22.4827C2.43329 22.1425 1.93253 21.6521 1.58 21.0596C1.19934 20.44 0.998523 19.7267 1 18.9996C1 17.7396 1.58 16.6096 2.5 15.8796C3.088 15.4083 3.79718 15.1127 4.54584 15.027C5.29449 14.9412 6.05215 15.0687 6.73149 15.3948C7.41084 15.7209 7.98422 16.2323 8.38558 16.87C8.78693 17.5078 8.99992 18.246 9 18.9996Z" stroke="white" stroke-width="1.5" stroke-miterlimit="10" stroke-linecap="round" stroke-linejoin="round"/>
</svg>
