<svg width="27" height="40" viewBox="0 0 27 40" fill="none" xmlns="http://www.w3.org/2000/svg">
<path fill-rule="evenodd" clip-rule="evenodd" d="M22.4516 5.59996L24.5899 7.78195L20.5751 11.7968L16.3784 7.5492C15.2082 6.36712 13.617 5.69721 11.9537 5.68631C10.2904 5.6754 8.69058 6.32437 7.50495 7.491C6.32684 8.66188 5.65955 10.2511 5.64865 11.9121C5.63775 13.573 6.28414 15.1709 7.44678 16.3571L13.9054 22.9031L16.6547 25.6961C16.9212 25.9601 17.1325 26.2744 17.2767 26.6206C17.4208 26.9669 17.4949 27.3384 17.4945 27.7134C17.4942 28.0885 17.4194 28.4598 17.2746 28.8058C17.1298 29.1518 16.9179 29.4657 16.651 29.7292C16.384 29.9928 16.0675 30.2007 15.7197 30.3411C15.3719 30.4815 14.9997 30.5516 14.6246 30.5472C14.2496 30.5427 13.8791 30.464 13.5347 30.3155C13.1903 30.1669 12.8787 29.9516 12.6181 29.6818L9.89059 26.8816L3.4319 20.3356C1.21234 18.0753 -0.0215251 15.0279 0.000284277 11.8601C0.0220936 8.69225 1.2978 5.66205 3.54828 3.43251C5.80856 1.21376 8.85513 -0.0201925 12.0223 0.000250004C15.1896 0.0206925 18.22 1.29387 20.4514 3.54161L22.4516 5.59996Z" fill="#009FBD"/>
<path fill-rule="evenodd" clip-rule="evenodd" d="M4.39201 34.344L2.25366 32.162L6.26851 28.1472L10.4652 32.3948C11.6364 33.5751 13.2272 34.2438 14.8899 34.2547C16.5527 34.2656 18.1521 33.6178 19.3386 32.453C20.5185 31.283 21.187 29.6934 21.1979 28.0319C21.2088 26.3704 20.5612 24.7721 19.3968 23.5868L12.9381 17.0408L10.1888 14.2479C9.92712 13.9824 9.72027 13.6679 9.5801 13.3224C9.43992 12.977 9.36917 12.6073 9.37187 12.2344C9.37457 11.8616 9.45067 11.493 9.59583 11.1496C9.741 10.8062 9.9524 10.4948 10.2179 10.233C10.4835 9.97134 10.7979 9.76449 11.1434 9.62431C11.4889 9.48414 11.8586 9.41339 12.2314 9.41609C12.6042 9.41879 12.9728 9.49489 13.3162 9.64005C13.6596 9.78522 13.9711 9.9966 14.2328 10.2621L16.9821 13.0478L23.4408 19.5938C25.6603 21.8541 26.8942 24.9016 26.8724 28.0694C26.8506 31.2372 25.5749 34.2674 23.3244 36.4969C21.0641 38.7157 18.0175 39.9496 14.8503 39.9292C11.6831 39.9087 8.65272 38.6356 6.42127 36.3878L4.39201 34.344Z" fill="#865DFF"/>
</svg>
