<svg width="24" height="24" viewBox="0 0 24 24" fill="none" xmlns="http://www.w3.org/2000/svg">
<path d="M10.752 16.8604V18.8904C10.752 20.6104 9.152 22.0004 7.182 22.0004C5.212 22.0004 3.602 20.6104 3.602 18.8904V16.8604C3.602 18.5804 5.202 19.8004 7.182 19.8004C9.152 19.8004 10.752 18.5704 10.752 16.8604Z" stroke="white" stroke-width="1.5" stroke-linecap="round" stroke-linejoin="round"/>
<path d="M10.75 14.1098C10.75 14.6098 10.61 15.0698 10.37 15.4698C9.78 16.4398 8.57 17.0498 7.17 17.0498C5.77 17.0498 4.56 16.4298 3.97 15.4698C3.73 15.0698 3.59 14.6098 3.59 14.1098C3.59 13.2498 3.99 12.4798 4.63 11.9198C5.28 11.3498 6.17 11.0098 7.16 11.0098C8.15 11.0098 9.04 11.3598 9.69 11.9198C10.35 12.4698 10.75 13.2498 10.75 14.1098Z" stroke="white" stroke-width="1.5" stroke-linecap="round" stroke-linejoin="round"/>
<path d="M10.752 14.1102V16.8602C10.752 18.5802 9.152 19.8002 7.182 19.8002C5.212 19.8002 3.602 18.5702 3.602 16.8602V14.1102C3.602 12.3902 5.202 11.0002 7.182 11.0002C8.172 11.0002 9.062 11.3502 9.712 11.9102C10.352 12.4702 10.752 13.2502 10.752 14.1102ZM22 10.9702V13.0302C22 13.5802 21.56 14.0302 21 14.0502H19.04C17.96 14.0502 16.97 13.2602 16.88 12.1802C16.82 11.5502 17.06 10.9602 17.48 10.5502C17.85 10.1702 18.36 9.9502 18.92 9.9502H21C21.56 9.9702 22 10.4202 22 10.9702Z" stroke="white" stroke-width="1.5" stroke-linecap="round" stroke-linejoin="round"/>
<path d="M2 10.5V8.5C2 5.78 3.64 3.88 6.19 3.56C6.45 3.52 6.72 3.5 7 3.5H16C16.26 3.5 16.51 3.51 16.75 3.55C19.33 3.85 21 5.76 21 8.5V9.95H18.92C18.36 9.95 17.85 10.17 17.48 10.55C17.06 10.96 16.82 11.55 16.88 12.18C16.97 13.26 17.96 14.05 19.04 14.05H21V15.5C21 18.5 19 20.5 16 20.5H13.5" stroke="white" stroke-width="1.5" stroke-linecap="round" stroke-linejoin="round"/>
</svg>
