<svg width="173" height="40" viewBox="0 0 173 40" fill="none" xmlns="http://www.w3.org/2000/svg">
<path fill-rule="evenodd" clip-rule="evenodd" d="M22.4516 5.59996L24.5899 7.78195L20.5751 11.7968L16.3784 7.5492C15.2082 6.36712 13.617 5.69721 11.9537 5.68631C10.2904 5.6754 8.69058 6.32437 7.50495 7.491C6.32684 8.66188 5.65955 10.2511 5.64865 11.9121C5.63775 13.573 6.28414 15.1709 7.44678 16.3571L13.9054 22.9031L16.6547 25.6961C16.9212 25.9601 17.1325 26.2744 17.2767 26.6206C17.4208 26.9669 17.4949 27.3384 17.4945 27.7134C17.4942 28.0885 17.4194 28.4598 17.2746 28.8058C17.1298 29.1518 16.9179 29.4657 16.651 29.7292C16.384 29.9928 16.0675 30.2007 15.7197 30.3411C15.3719 30.4815 14.9997 30.5516 14.6246 30.5472C14.2496 30.5427 13.8791 30.464 13.5347 30.3155C13.1903 30.1669 12.8787 29.9516 12.6181 29.6818L9.89059 26.8816L3.4319 20.3356C1.21234 18.0753 -0.0215251 15.0279 0.000284277 11.8601C0.0220936 8.69225 1.2978 5.66205 3.54828 3.43251C5.80856 1.21376 8.85513 -0.0201925 12.0224 0.000250004C15.1896 0.0206925 18.22 1.29387 20.4514 3.54161L22.4516 5.59996Z" fill="#009FBD"/>
<path fill-rule="evenodd" clip-rule="evenodd" d="M4.39198 34.344L2.25363 32.162L6.26848 28.1472L10.4652 32.3948C11.6364 33.5751 13.2272 34.2438 14.8899 34.2547C16.5526 34.2656 18.152 33.6178 19.3386 32.453C20.5185 31.283 21.187 29.6934 21.1979 28.0319C21.2088 26.3704 20.5612 24.7721 19.3968 23.5868L12.9381 17.0408L10.1888 14.2479C9.92709 13.9824 9.72024 13.6679 9.58006 13.3224C9.43989 12.977 9.36914 12.6073 9.37184 12.2344C9.37454 11.8616 9.45064 11.493 9.5958 11.1496C9.74097 10.8062 9.95237 10.4948 10.2179 10.233C10.4834 9.97134 10.7979 9.76449 11.1434 9.62431C11.4888 9.48414 11.8585 9.41339 12.2313 9.41609C12.6042 9.41879 12.9728 9.49489 13.3162 9.64005C13.6596 9.78522 13.971 9.9966 14.2327 10.2621L16.9821 13.0478L23.4407 19.5938C25.6603 21.8541 26.8942 24.9016 26.8724 28.0694C26.8506 31.2372 25.5748 34.2674 23.3244 36.4969C21.0641 38.7157 18.0175 39.9496 14.8503 39.9292C11.6831 39.9087 8.65269 38.6356 6.42124 36.3878L4.39198 34.344Z" fill="#865DFF"/>
<path d="M43.2619 26.1309C42.2379 26.1309 41.2487 26.0145 40.2944 25.7817C39.3402 25.549 38.5547 25.2464 37.9379 24.874L39.2645 21.8716C39.8464 22.2091 40.4923 22.4826 41.2021 22.692C41.9237 22.8899 42.6219 22.9888 43.2969 22.9888C43.6925 22.9888 44.0009 22.9655 44.222 22.919C44.4548 22.8608 44.6235 22.7851 44.7282 22.692C44.833 22.5873 44.8853 22.4651 44.8853 22.3255C44.8853 22.1044 44.7632 21.9298 44.5188 21.8018C44.2744 21.6738 43.9485 21.569 43.5412 21.4876C43.1456 21.3945 42.7092 21.3014 42.232 21.2083C41.7549 21.1036 41.272 20.9697 40.7832 20.8068C40.3061 20.6439 39.8639 20.4286 39.4566 20.1609C39.0609 19.8933 38.7409 19.5442 38.4965 19.1136C38.2521 18.6714 38.1299 18.1244 38.1299 17.4727C38.1299 16.7163 38.3394 16.0297 38.7583 15.4129C39.1889 14.7845 39.8231 14.2841 40.661 13.9117C41.5105 13.5393 42.5637 13.3531 43.8205 13.3531C44.6468 13.3531 45.4614 13.4404 46.2644 13.615C47.0673 13.7895 47.7888 14.0572 48.4289 14.4179L47.1895 17.4029C46.5844 17.1003 45.9967 16.8734 45.4265 16.7221C44.8679 16.5708 44.3209 16.4952 43.7856 16.4952C43.39 16.4952 43.0757 16.5301 42.843 16.5999C42.6103 16.6698 42.4415 16.7629 42.3368 16.8792C42.2437 16.9956 42.1971 17.1236 42.1971 17.2633C42.1971 17.4727 42.3193 17.6415 42.5637 17.7695C42.8081 17.8859 43.1281 17.9848 43.5238 18.0662C43.9311 18.1477 44.3733 18.235 44.8504 18.3281C45.3392 18.4212 45.8221 18.5492 46.2993 18.7121C46.7764 18.875 47.2128 19.0903 47.6085 19.358C48.0158 19.6256 48.3416 19.9747 48.586 20.4053C48.8304 20.8359 48.9526 21.3712 48.9526 22.0113C48.9526 22.756 48.7373 23.4426 48.3067 24.0711C47.8878 24.6878 47.2593 25.1882 46.4215 25.5723C45.5836 25.9447 44.5304 26.1309 43.2619 26.1309ZM54.6646 26.0261C53.3496 26.0261 52.3255 25.7119 51.5924 25.0835C50.8592 24.4435 50.4926 23.4659 50.4926 22.1509V14.1561H54.4377V22.116C54.4377 22.4069 54.5133 22.6339 54.6646 22.7968C54.8275 22.9597 55.0254 23.0412 55.2581 23.0412C55.5956 23.0412 55.8923 22.9539 56.1484 22.7793L57.091 25.5199C56.7884 25.6945 56.4218 25.8225 55.9913 25.9039C55.5723 25.9854 55.1301 26.0261 54.6646 26.0261ZM49.1835 19.7071V16.8269H56.3927V19.7071H49.1835ZM63.8632 25.8516V24.1583L63.5839 23.7045V20.4926C63.5839 20.0271 63.4384 19.6722 63.1475 19.4278C62.8682 19.1834 62.4085 19.0612 61.7685 19.0612C61.3379 19.0612 60.9015 19.131 60.4593 19.2707C60.0171 19.3987 59.6389 19.5791 59.3247 19.8118L58.0678 17.2109C58.6264 16.8618 59.2956 16.5941 60.0753 16.4079C60.855 16.2217 61.6172 16.1286 62.362 16.1286C64.0028 16.1286 65.2713 16.4952 66.1674 17.2283C67.0751 17.9615 67.5289 19.1252 67.5289 20.7195V25.8516H63.8632ZM61.1575 26.0261C60.3778 26.0261 59.7261 25.8923 59.2025 25.6246C58.6788 25.357 58.2831 25.002 58.0155 24.5598C57.7478 24.106 57.614 23.6056 57.614 23.0586C57.614 22.4418 57.7711 21.9182 58.0853 21.4876C58.3995 21.057 58.8766 20.7312 59.5167 20.5101C60.1684 20.2889 60.9888 20.1784 61.9779 20.1784H63.9679V22.0811H62.6064C62.1874 22.0811 61.879 22.1509 61.6812 22.2906C61.495 22.4186 61.4019 22.6164 61.4019 22.8841C61.4019 23.1052 61.4834 23.2914 61.6463 23.4426C61.8208 23.5823 62.0536 23.6521 62.3445 23.6521C62.6122 23.6521 62.8566 23.5823 63.0777 23.4426C63.3104 23.2914 63.4792 23.0586 63.5839 22.7444L64.0901 23.914C63.9388 24.6238 63.6188 25.1533 63.13 25.5024C62.6413 25.8516 61.9838 26.0261 61.1575 26.0261ZM75.6053 26.0261C74.7325 26.0261 74.0284 25.8516 73.4931 25.5024C72.9578 25.1533 72.568 24.6122 72.3236 23.879C72.0908 23.1459 71.9745 22.2091 71.9745 21.0686C71.9745 19.9398 72.1025 19.0147 72.3585 18.2932C72.6145 17.56 73.0102 17.0189 73.5455 16.6698C74.0924 16.309 74.779 16.1286 75.6053 16.1286C76.4432 16.1286 77.2112 16.3265 77.9095 16.7221C78.6077 17.1178 79.1663 17.688 79.5852 18.4328C80.0042 19.166 80.2136 20.0446 80.2136 21.0686C80.2136 22.0927 80.0042 22.9772 79.5852 23.7219C79.1663 24.4551 78.6077 25.0253 77.9095 25.4326C77.2112 25.8283 76.4432 26.0261 75.6053 26.0261ZM69.2339 25.8516V12.8993H73.1789V17.5775L73.0044 21.0686L72.9869 24.5598V25.8516H69.2339ZM74.6627 22.9539C74.9536 22.9539 75.2154 22.8841 75.4482 22.7444C75.6809 22.6048 75.8671 22.3953 76.0068 22.116C76.1464 21.8251 76.2162 21.4759 76.2162 21.0686C76.2162 20.6497 76.1464 20.3064 76.0068 20.0387C75.8671 19.7595 75.6809 19.55 75.4482 19.4103C75.2154 19.2707 74.9536 19.2009 74.6627 19.2009C74.3717 19.2009 74.1099 19.2707 73.8772 19.4103C73.6444 19.55 73.4582 19.7595 73.3186 20.0387C73.1789 20.3064 73.1091 20.6497 73.1091 21.0686C73.1091 21.4759 73.1789 21.8251 73.3186 22.116C73.4582 22.3953 73.6444 22.6048 73.8772 22.7444C74.1099 22.8841 74.3717 22.9539 74.6627 22.9539ZM81.4564 25.8516V12.8993H85.4015V25.8516H81.4564ZM92.4217 26.0261C91.258 26.0261 90.2397 25.8108 89.3669 25.3803C88.5058 24.9497 87.8366 24.362 87.3595 23.6172C86.8824 22.8608 86.6438 22.0113 86.6438 21.0686C86.6438 20.1028 86.8766 19.2474 87.3421 18.5026C87.8192 17.7578 88.4651 17.176 89.2797 16.757C90.1059 16.3381 91.0311 16.1286 92.0552 16.1286C92.9978 16.1286 93.8648 16.3148 94.6561 16.6872C95.4591 17.0596 96.0991 17.6124 96.5762 18.3455C97.065 19.0787 97.3094 19.9864 97.3094 21.0686C97.3094 21.2083 97.3036 21.3654 97.2919 21.54C97.2803 21.7029 97.2687 21.8542 97.257 21.9938H89.9081V20.0911H95.1623L93.6786 20.5973C93.6786 20.2249 93.6087 19.9107 93.4691 19.6547C93.3411 19.3871 93.1607 19.1834 92.928 19.0438C92.6952 18.8925 92.4159 18.8168 92.0901 18.8168C91.7642 18.8168 91.4791 18.8925 91.2347 19.0438C91.002 19.1834 90.8216 19.3871 90.6936 19.6547C90.5656 19.9107 90.5016 20.2249 90.5016 20.5973V21.1908C90.5016 21.5981 90.583 21.9473 90.746 22.2382C90.9089 22.5291 91.1416 22.7502 91.4442 22.9015C91.7468 23.0412 92.1133 23.111 92.5439 23.111C92.9861 23.111 93.3469 23.0528 93.6262 22.9364C93.9171 22.8201 94.2197 22.6455 94.5339 22.4127L96.5937 24.49C96.1282 24.9904 95.5522 25.3744 94.8656 25.6421C94.1906 25.8981 93.376 26.0261 92.4217 26.0261ZM103.91 25.8516V13.6324H110.438C112.126 13.6324 113.371 13.935 114.174 14.5401C114.977 15.1336 115.378 15.8959 115.378 16.8269C115.378 17.4436 115.204 17.9964 114.855 18.4852C114.517 18.9623 114.023 19.3405 113.371 19.6198C112.719 19.8991 111.916 20.0387 110.962 20.0387L111.311 19.0961C112.265 19.0961 113.086 19.23 113.772 19.4976C114.471 19.7653 115.006 20.1551 115.378 20.6672C115.762 21.1676 115.954 21.7727 115.954 22.4826C115.954 23.5416 115.512 24.3678 114.628 24.9613C113.755 25.5548 112.475 25.8516 110.788 25.8516H103.91ZM107.96 22.9713H110.438C110.892 22.9713 111.23 22.8899 111.451 22.727C111.684 22.564 111.8 22.3255 111.8 22.0113C111.8 21.6971 111.684 21.4585 111.451 21.2956C111.23 21.1326 110.892 21.0512 110.438 21.0512H107.68V18.3281H109.88C110.345 18.3281 110.683 18.2524 110.892 18.1011C111.113 17.9382 111.224 17.7113 111.224 17.4204C111.224 17.1178 111.113 16.8909 110.892 16.7396C110.683 16.5883 110.345 16.5127 109.88 16.5127H107.96V22.9713ZM122.334 26.0261C121.251 26.0261 120.291 25.8167 119.453 25.3977C118.627 24.9671 117.975 24.3794 117.498 23.6347C117.021 22.8899 116.783 22.0345 116.783 21.0686C116.783 20.1028 117.021 19.2474 117.498 18.5026C117.975 17.7578 118.627 17.176 119.453 16.757C120.291 16.3381 121.251 16.1286 122.334 16.1286C123.416 16.1286 124.376 16.3381 125.214 16.757C126.052 17.176 126.703 17.7578 127.169 18.5026C127.646 19.2474 127.884 20.1028 127.884 21.0686C127.884 22.0345 127.646 22.8899 127.169 23.6347C126.703 24.3794 126.052 24.9671 125.214 25.3977C124.376 25.8167 123.416 26.0261 122.334 26.0261ZM122.334 22.9539C122.624 22.9539 122.886 22.8841 123.119 22.7444C123.352 22.6048 123.538 22.3953 123.678 22.116C123.817 21.8251 123.887 21.4759 123.887 21.0686C123.887 20.6497 123.817 20.3064 123.678 20.0387C123.538 19.7595 123.352 19.55 123.119 19.4103C122.886 19.2707 122.624 19.2009 122.334 19.2009C122.043 19.2009 121.781 19.2707 121.548 19.4103C121.315 19.55 121.129 19.7595 120.989 20.0387C120.85 20.3064 120.78 20.6497 120.78 21.0686C120.78 21.4759 120.85 21.8251 120.989 22.116C121.129 22.3953 121.315 22.6048 121.548 22.7444C121.781 22.8841 122.043 22.9539 122.334 22.9539ZM129.119 25.8516V16.3032H132.872V19.1834L132.261 18.363C132.552 17.6182 133.018 17.0596 133.658 16.6872C134.298 16.3148 135.066 16.1286 135.962 16.1286V19.6198C135.787 19.5965 135.63 19.5791 135.491 19.5674C135.363 19.5558 135.229 19.55 135.089 19.55C134.496 19.55 134.007 19.7071 133.623 20.0213C133.25 20.3239 133.064 20.8534 133.064 21.6098V25.8516H129.119ZM137.08 25.8516V16.3032H140.833V19.1834L140.222 18.363C140.513 17.6182 140.979 17.0596 141.619 16.6872C142.259 16.3148 143.027 16.1286 143.923 16.1286V19.6198C143.748 19.5965 143.591 19.5791 143.451 19.5674C143.323 19.5558 143.19 19.55 143.05 19.55C142.456 19.55 141.968 19.7071 141.584 20.0213C141.211 20.3239 141.025 20.8534 141.025 21.6098V25.8516H137.08ZM150 26.0261C148.918 26.0261 147.958 25.8167 147.12 25.3977C146.294 24.9671 145.642 24.3794 145.165 23.6347C144.688 22.8899 144.449 22.0345 144.449 21.0686C144.449 20.1028 144.688 19.2474 145.165 18.5026C145.642 17.7578 146.294 17.176 147.12 16.757C147.958 16.3381 148.918 16.1286 150 16.1286C151.083 16.1286 152.043 16.3381 152.881 16.757C153.719 17.176 154.37 17.7578 154.836 18.5026C155.313 19.2474 155.551 20.1028 155.551 21.0686C155.551 22.0345 155.313 22.8899 154.836 23.6347C154.37 24.3794 153.719 24.9671 152.881 25.3977C152.043 25.8167 151.083 26.0261 150 26.0261ZM150 22.9539C150.291 22.9539 150.553 22.8841 150.786 22.7444C151.019 22.6048 151.205 22.3953 151.345 22.116C151.484 21.8251 151.554 21.4759 151.554 21.0686C151.554 20.6497 151.484 20.3064 151.345 20.0387C151.205 19.7595 151.019 19.55 150.786 19.4103C150.553 19.2707 150.291 19.2009 150 19.2009C149.71 19.2009 149.448 19.2707 149.215 19.4103C148.982 19.55 148.796 19.7595 148.656 20.0387C148.517 20.3064 148.447 20.6497 148.447 21.0686C148.447 21.4759 148.517 21.8251 148.656 22.116C148.796 22.3953 148.982 22.6048 149.215 22.7444C149.448 22.8841 149.71 22.9539 150 22.9539ZM158.87 25.8516L155.553 16.3032H159.288L161.802 24.0536H160.004L162.64 16.3032H165.992L168.505 24.0536H166.76L169.361 16.3032H172.817L169.5 25.8516H165.66L163.652 19.7071H164.805L162.71 25.8516H158.87Z" fill="#009FBD"/>
</svg>
