<svg width="24" height="24" viewBox="0 0 24 24" fill="none" xmlns="http://www.w3.org/2000/svg">
<path d="M3.35001 2H12.25C12.99 2 13.6 2.61 13.6 3.35V4.83C13.6 5.37 13.26 6.04 12.93 6.38L10.03 8.94C9.63001 9.28 9.36001 9.95 9.36001 10.49V13.39C9.36001 13.79 9.09001 14.33 8.75001 14.54L7.81001 15.15C6.93001 15.69 5.72001 15.08 5.72001 14V10.43C5.72001 9.96 5.45001 9.35 5.18001 9.01L2.62001 6.31C2.28001 5.97 2.01001 5.37 2.01001 4.96V3.41C2.00001 2.61 2.61001 2 3.35001 2Z" stroke="#B0B0B0" stroke-width="1.5" stroke-miterlimit="10" stroke-linecap="round" stroke-linejoin="round"/>
<path d="M2 12.0002V15.0002C2 20.0002 4 22.0002 9 22.0002H15C20 22.0002 22 20.0002 22 15.0002V9.00023C22 5.88023 21.22 3.92023 19.41 2.90023C18.9 2.61023 17.88 2.39023 16.95 2.24023M13 13.0002H18M11 17.0002H18" stroke="#B0B0B0" stroke-width="1.5" stroke-linecap="round" stroke-linejoin="round"/>
</svg>
