<svg width="86" height="107" viewBox="0 0 86 107" fill="none" xmlns="http://www.w3.org/2000/svg">
<g clip-path="url(#clip0_632_4278)">
<path d="M37.8576 12.6197L39.496 13.8107L38.8223 15.6898C38.6303 16.2288 38.7764 16.8321 39.1963 17.222C39.4673 17.4742 39.817 17.6061 40.1724 17.6061C40.3687 17.6061 40.5666 17.566 40.7529 17.4843L43.0549 16.4638L45.308 17.48C45.8268 17.7149 46.4374 17.6175 46.8603 17.2334C47.2831 16.8492 47.438 16.2501 47.253 15.7098L46.6195 13.8551L48.2019 12.5736C48.6734 12.191 48.8526 11.5531 48.6505 10.9811C48.4485 10.4092 47.9066 10.0266 47.2989 10.0266H45.3194L44.2817 7.95253C43.7958 6.98067 42.2034 6.98067 41.7175 7.95253L40.6798 10.0266H38.699C38.0783 10.0266 37.5279 10.4265 37.3359 11.0171C37.1438 11.6078 37.3546 12.2557 37.8576 12.6197ZM42.8484 12.1008L42.9989 11.7983L43.151 12.1008C43.2727 12.3459 43.4592 12.5437 43.6827 12.6813C43.5423 12.9408 43.482 13.239 43.5164 13.5356C43.3688 13.4869 43.2139 13.461 43.0592 13.461C42.9103 13.461 42.7626 13.484 42.6192 13.5299C42.678 13.2017 42.6177 12.8662 42.4586 12.5824C42.6192 12.4534 42.7539 12.2915 42.8484 12.1008Z" fill="#009FBD"/>
<path d="M14.9809 18.0534L20.0678 24.8372V30.0932C20.0678 30.8844 20.7099 31.5265 21.501 31.5265H64.5006C65.2933 31.5265 65.9339 30.8844 65.9339 30.0932V24.8631L71.3533 18.0878C71.4308 17.9932 71.4953 17.8857 71.5453 17.7739C71.637 17.5661 72.4211 15.6941 71.7044 13.8795C71.2988 12.8504 70.489 12.0536 69.4239 11.6019L47.9344 1.23917C44.6278 -0.390446 41.2609 -0.40338 38.0616 1.19768L17.0091 11.7124C15.5212 12.3316 14.8778 13.3335 14.6011 14.0645C13.9261 15.8417 14.7415 17.6205 14.8361 17.8169C14.8763 17.9 14.925 17.9788 14.9809 18.0534ZM17.2842 15.0721C17.3257 14.9631 17.4562 14.6307 18.2002 14.3168L39.343 3.76187C41.7453 2.55939 44.1517 2.57081 46.6788 3.81495L68.2402 14.2123C69.43 14.7182 69.202 15.8663 68.9827 16.464L63.3826 23.4644C63.1791 23.7196 63.0674 24.0348 63.0674 24.3602V28.6601H22.9343V24.3602C22.9343 24.0506 22.834 23.7481 22.6476 23.5002L17.3786 16.4726C17.2656 16.1728 17.1022 15.5379 17.2842 15.0721Z" fill="#009FBD"/>
<path d="M28.0294 25.5521C28.0695 25.5249 32.176 22.9263 43.0005 22.9263C53.8263 22.9263 57.9314 25.5249 57.96 25.5449C58.2079 25.7125 58.4889 25.7928 58.7655 25.7928C59.2242 25.7928 59.6757 25.5734 59.9524 25.1664C60.3982 24.5114 60.229 23.62 59.574 23.1742C59.3877 23.0467 54.8626 20.0596 43.0005 20.0596C31.1398 20.0596 26.6148 23.0465 26.427 23.1742C25.7776 23.6171 25.6115 24.4971 26.0472 25.1508C26.4844 25.8057 27.3716 25.9821 28.0294 25.5521Z" fill="#009FBD"/>
<path d="M41.5661 54.46C40.7749 54.46 40.1328 55.1021 40.1328 55.8932C40.1328 56.6843 40.7749 57.3265 41.5661 57.3265H44.4328C45.2254 57.3265 45.866 56.6843 45.866 55.8932C45.866 55.1021 45.2254 54.46 44.4328 54.46H41.5661Z" fill="#009FBD"/>
<path d="M50.1637 51.5975C50.1652 50.8077 49.5259 50.1642 48.7361 50.1599C48.7102 50.1599 46.1476 50.1311 43.6407 48.8771C43.2365 48.6764 42.7607 48.6764 42.3579 48.8771C39.851 50.1313 37.2883 50.1599 37.2653 50.1599C36.4742 50.1599 35.832 50.802 35.832 51.5931C35.832 52.3843 36.4742 53.0264 37.2653 53.0264C37.3871 53.0264 40.096 53.0106 42.9985 51.7408C45.9025 53.0108 48.61 53.0264 48.7317 53.0264C49.523 53.0264 50.1623 52.3873 50.1637 51.5975Z" fill="#009FBD"/>
<path d="M65.9324 38.6935V35.8268C65.9324 35.0357 65.2917 34.3936 64.4991 34.3936C63.708 34.3936 63.0658 35.0357 63.0658 35.8268V38.6935C63.0658 39.4833 62.4237 40.1268 61.6326 40.1268C60.9101 40.1268 60.3011 40.6643 60.2107 41.3823C59.8237 44.4783 58.3387 53.2344 56.14 56.5311L55.905 56.8865C54.1879 59.4924 51.8359 63.0598 42.9995 63.0598C34.1646 63.0598 31.8123 59.4924 30.0952 56.8865L29.8587 56.5311C27.6642 53.2388 26.1765 44.4798 25.7895 41.3823C25.6992 40.6643 25.0901 40.1268 24.3662 40.1268C23.5764 40.1268 22.9329 39.4833 22.9329 38.6935V35.8268C22.9329 35.0357 22.2923 34.3936 21.4997 34.3936C20.7085 34.3936 20.0664 35.0357 20.0664 35.8268V38.6935C20.0664 40.6199 21.3406 42.2553 23.0907 42.8C23.5307 45.8128 24.9568 54.3454 27.4738 58.1221L27.7017 58.4646C29.5406 61.2552 32.6208 65.9264 42.9995 65.9264C53.3795 65.9264 56.4598 61.2552 58.2987 58.4646L58.5252 58.1221C61.0435 54.3454 62.4697 45.8128 62.9096 42.8C64.6597 42.2553 65.9324 40.6199 65.9324 38.6935Z" fill="#009FBD"/>
<path d="M59.4087 68.9446L53.6755 66.0765C53.161 65.82 52.5404 65.896 52.1016 66.2715L43 74.0716L33.8999 66.2715C33.4613 65.8946 32.8407 65.82 32.326 66.0765L26.5928 68.9446C26.1628 69.1596 25.8704 69.5753 25.8116 70.0525C25.7528 70.5283 25.9362 71.0028 26.3017 71.3153L36.3349 79.9137C36.6058 80.1458 36.9354 80.2592 37.2666 80.2592C37.6707 80.2592 38.0722 80.0887 38.3559 79.759C38.8704 79.157 38.8017 78.2525 38.1997 77.738L29.8047 70.5441L32.7574 69.0663L41.5666 76.6185V84.5591C41.5666 85.3502 42.2087 85.9924 42.9998 85.9924C43.7925 85.9924 44.4331 85.3502 44.4331 84.5591V76.6185L53.2436 69.0663L56.1948 70.5441L47.8013 77.738C47.1993 78.2525 47.1305 79.157 47.6451 79.759C47.929 80.0887 48.3303 80.2592 48.7344 80.2592C49.0641 80.2592 49.3965 80.146 49.6661 79.9137L59.6993 71.3153C60.0648 71.0028 60.2482 70.5283 60.1894 70.0525C60.131 69.5751 59.8387 69.1596 59.4087 68.9446Z" fill="#009FBD"/>
<path d="M85.9262 84.1065L84.493 79.8066C82.7815 74.6782 78.9631 68.793 64.4997 68.793C63.7085 68.793 63.0664 69.4351 63.0664 70.2262C63.0664 71.0174 63.7085 71.6595 64.4997 71.6595C65.4156 71.6595 66.2784 71.6854 67.0954 71.7341L65.9904 75.5625C65.7826 76.2778 66.1595 77.0331 66.8561 77.2997L74.381 80.1664C74.5501 80.2293 74.7221 80.2596 74.8913 80.2596C75.4646 80.2596 76.0064 79.9127 76.2271 79.3465L77.937 74.9606C80.4826 76.8813 81.2724 79.2103 81.7741 80.7124L83.2073 85.0124C83.4066 85.6129 83.9671 85.9928 84.5662 85.9928C84.7167 85.9928 84.87 85.97 85.0205 85.9197C85.7714 85.669 86.177 84.8562 85.9262 84.1065ZM74.0726 76.9802L69.1105 75.0896L69.992 72.0381C72.2065 72.3606 73.9895 72.8766 75.4258 73.513L74.0726 76.9802Z" fill="#009FBD"/>
<path d="M37.2645 40.1263H38.6977C39.4904 40.1263 40.131 39.4842 40.131 38.693C40.131 37.9019 39.4904 37.2598 38.6977 37.2598H32.9645C32.1734 37.2598 31.5312 37.9019 31.5312 38.693C31.5312 39.4842 32.1734 40.1263 32.9645 40.1263H34.3978C34.3978 40.9174 35.0399 41.5596 35.831 41.5596C36.6237 41.5597 37.2645 40.9176 37.2645 40.1263Z" fill="#009FBD"/>
<path d="M22.9327 68.793C7.48859 68.793 2.88058 75.6929 1.50745 79.8066L0.0741842 84.1065C-0.176591 84.8562 0.22905 85.6688 0.980031 85.9197C1.13053 85.97 1.28388 85.9928 1.43304 85.9928C2.03369 85.9928 2.59403 85.613 2.79324 85.0124L4.2265 80.7124C4.74535 79.1587 5.68848 77.4932 7.35119 76.0182L8.70568 79.3636C8.92924 79.9183 9.46388 80.2594 10.033 80.2594C10.1835 80.2594 10.3368 80.2351 10.4873 80.1863L19.0872 77.3197C19.4527 77.1979 19.7537 76.9327 19.9229 76.5858C20.092 76.239 20.1135 75.839 19.983 75.4764L18.6886 71.8616C19.9916 71.7341 21.3976 71.6595 22.9327 71.6595C23.7253 71.6595 24.3659 71.0174 24.3659 70.2262C24.3659 69.4351 23.7253 68.793 22.9327 68.793ZM10.857 77.0403L9.76622 74.3471C11.3443 73.4757 13.3238 72.7575 15.7934 72.2832L16.7896 75.0623L10.857 77.0403Z" fill="#009FBD"/>
<path d="M51.6004 40.1263H53.0337C53.8263 40.1263 54.4669 39.4842 54.4669 38.693C54.4669 37.9019 53.8263 37.2598 53.0337 37.2598H47.3004C46.5093 37.2598 45.8672 37.9019 45.8672 38.693C45.8672 39.4842 46.5093 40.1263 47.3004 40.1263H48.7337C48.7337 40.9174 49.3759 41.5596 50.167 41.5596C50.9598 41.5597 51.6004 40.9176 51.6004 40.1263Z" fill="#009FBD"/>
</g>
<path d="M19.04 91.8H22V95.96H26.32V91.8H29.28V103H26.32V98.68H22V103H19.04V91.8ZM34.4725 103.24C33.9712 103.24 33.4965 103.139 33.0485 102.936C32.6112 102.733 32.2218 102.445 31.8805 102.072C31.5498 101.688 31.2832 101.224 31.0805 100.68C30.8885 100.136 30.7925 99.5227 30.7925 98.84C30.7925 98.1573 30.8885 97.544 31.0805 97C31.2832 96.456 31.5498 95.9973 31.8805 95.624C32.2218 95.24 32.6112 94.9467 33.0485 94.744C33.4965 94.5413 33.9712 94.44 34.4725 94.44C34.8885 94.44 35.2512 94.5147 35.5605 94.664C35.8698 94.8027 36.1312 94.9573 36.3445 95.128C36.5898 95.32 36.7925 95.544 36.9525 95.8H37.1125V94.68H39.8325V103H37.1125V101.88H36.9525C36.7925 102.147 36.5898 102.376 36.3445 102.568C36.1312 102.739 35.8698 102.893 35.5605 103.032C35.2512 103.171 34.8885 103.24 34.4725 103.24ZM35.3525 100.92C35.8752 100.92 36.2965 100.744 36.6165 100.392C36.9472 100.04 37.1125 99.5227 37.1125 98.84C37.1125 98.1573 36.9472 97.64 36.6165 97.288C36.2965 96.936 35.8752 96.76 35.3525 96.76C34.8298 96.76 34.4032 96.936 34.0725 97.288C33.7525 97.64 33.5925 98.1573 33.5925 98.84C33.5925 99.5227 33.7525 100.04 34.0725 100.392C34.4032 100.744 34.8298 100.92 35.3525 100.92ZM44.545 103.24C43.5743 103.24 42.8117 102.952 42.257 102.376C41.7023 101.789 41.425 100.931 41.425 99.8V94.68H44.145V99.4C44.145 99.88 44.273 100.253 44.529 100.52C44.785 100.787 45.137 100.92 45.585 100.92C46.033 100.92 46.4117 100.755 46.721 100.424C47.0303 100.093 47.185 99.6453 47.185 99.08V94.68H49.905V103H47.185V101.88H47.025C46.8757 102.147 46.6837 102.376 46.449 102.568C46.2463 102.739 45.9903 102.893 45.681 103.032C45.3717 103.171 44.993 103.24 44.545 103.24ZM51.5031 94.68H54.2231V95.8H54.3831C54.5325 95.544 54.7245 95.32 54.9591 95.128C55.1618 94.9573 55.4178 94.8027 55.7271 94.664C56.0365 94.5147 56.4151 94.44 56.8631 94.44C57.8338 94.44 58.5965 94.7333 59.1511 95.32C59.7058 95.896 59.9831 96.7493 59.9831 97.88V103H57.2631V98.28C57.2631 97.8 57.1351 97.4267 56.8791 97.16C56.6231 96.8933 56.2711 96.76 55.8231 96.76C55.3751 96.76 54.9965 96.9253 54.6871 97.256C54.3778 97.5867 54.2231 98.0347 54.2231 98.6V103H51.5031V94.68ZM61.9831 96.84H60.9431V94.68H61.9831V92.92H64.7031V94.68H66.8631V96.84H64.7031V100.84H67.0231V103H61.9831V96.84Z" fill="#009FBD"/>
<defs>
<clipPath id="clip0_632_4278">
<rect width="86" height="86" fill="white"/>
</clipPath>
</defs>
</svg>
