<svg width="24" height="24" viewBox="0 0 24 24" fill="none" xmlns="http://www.w3.org/2000/svg">
<g clip-path="url(#clip0_560_8681)">
<path d="M10.5636 3.51856L11.0209 3.85095L10.8328 4.37534C10.7793 4.52576 10.8201 4.69413 10.9372 4.80293C11.0128 4.87333 11.1104 4.91013 11.2096 4.91013C11.2644 4.91013 11.3196 4.89893 11.3716 4.87614L12.014 4.59133L12.6428 4.87493C12.7876 4.9405 12.958 4.91332 13.076 4.80611C13.194 4.69891 13.2372 4.53171 13.1856 4.38091L13.0088 3.86333L13.4504 3.50572C13.582 3.39894 13.632 3.22091 13.5756 3.0613C13.5192 2.90169 13.368 2.79491 13.1984 2.79491H12.646L12.3564 2.21611C12.2208 1.94489 11.7764 1.94489 11.6408 2.21611L11.3512 2.79491H10.7984C10.6252 2.79491 10.4716 2.90652 10.4181 3.07133C10.3644 3.23619 10.4233 3.41699 10.5636 3.51856ZM11.9564 3.37377L11.9984 3.28935L12.0409 3.37377C12.0748 3.44216 12.1269 3.49738 12.1893 3.53577C12.1501 3.60819 12.1332 3.69139 12.1429 3.77417C12.1017 3.76058 12.0584 3.75336 12.0153 3.75336C11.9737 3.75336 11.9325 3.75978 11.8924 3.77258C11.9089 3.68098 11.892 3.58738 11.8476 3.50816C11.8924 3.47216 11.93 3.42697 11.9564 3.37377Z" fill="#009FBD"/>
<path d="M4.17999 5.03624L5.59958 6.92941V8.3962C5.59958 8.61698 5.77879 8.79618 5.99956 8.79618H17.9994C18.2206 8.79618 18.3994 8.61698 18.3994 8.3962V6.93662L19.9118 5.04585C19.9334 5.01946 19.9514 4.98946 19.9654 4.95824C19.991 4.90025 20.2098 4.37784 20.0098 3.87145C19.8966 3.58425 19.6706 3.36188 19.3734 3.23583L13.3763 0.343907C12.4535 -0.110869 11.5139 -0.114479 10.6211 0.332329L4.746 3.26668C4.33078 3.43946 4.15121 3.71906 4.074 3.92306C3.88562 4.41904 4.11319 4.91544 4.13958 4.97024C4.15079 4.99344 4.16438 5.01542 4.17999 5.03624ZM4.82278 4.20426C4.83436 4.17384 4.87078 4.08107 5.07839 3.99347L10.9787 1.04792C11.6491 0.712341 12.3207 0.715529 13.0259 1.06273L19.0431 3.96431C19.3751 4.1055 19.3115 4.42588 19.2502 4.59271L17.6875 6.5463C17.6306 6.6175 17.5995 6.70549 17.5995 6.79628V7.99627H6.39955V6.79628C6.39955 6.70989 6.37156 6.62547 6.31953 6.55628L4.84912 4.5951C4.81758 4.51143 4.77197 4.33424 4.82278 4.20426Z" fill="#009FBD"/>
<path d="M7.82397 7.12752C7.83518 7.11993 8.98117 6.39473 12.0019 6.39473C15.0231 6.39473 16.1687 7.11993 16.1767 7.12551C16.2459 7.17229 16.3243 7.1947 16.4015 7.1947C16.5295 7.1947 16.6555 7.13348 16.7327 7.0199C16.8571 6.83709 16.8099 6.58833 16.6271 6.46392C16.5751 6.42834 15.3123 5.59473 12.0019 5.59473C8.692 5.59473 7.4292 6.4283 7.37679 6.46392C7.19557 6.58753 7.14922 6.8331 7.27081 7.01554C7.39282 7.1983 7.64041 7.24752 7.82397 7.12752Z" fill="#009FBD"/>
<path d="M11.5992 15.1963C11.3784 15.1963 11.1992 15.3755 11.1992 15.5963C11.1992 15.817 11.3784 15.9962 11.5992 15.9962H12.3992C12.6204 15.9962 12.7992 15.817 12.7992 15.5963C12.7992 15.3755 12.6204 15.1963 12.3992 15.1963H11.5992Z" fill="#009FBD"/>
<path d="M13.9995 14.3979C13.9999 14.1775 13.8215 13.9979 13.6011 13.9967C13.5939 13.9967 12.8788 13.9887 12.1792 13.6387C12.0664 13.5827 11.9336 13.5827 11.8212 13.6387C11.1216 13.9887 10.4064 13.9967 10.4 13.9967C10.1792 13.9967 10 14.1759 10 14.3967C10 14.6174 10.1792 14.7966 10.4 14.7966C10.434 14.7966 11.19 14.7922 11.9999 14.4379C12.8104 14.7923 13.5659 14.7966 13.5999 14.7966C13.8207 14.7966 13.9991 14.6183 13.9995 14.3979Z" fill="#009FBD"/>
<path d="M18.4014 10.7947V9.99471C18.4014 9.77393 18.2226 9.59473 18.0014 9.59473C17.7806 9.59473 17.6014 9.77393 17.6014 9.99471V10.7947C17.6014 11.0151 17.4222 11.1947 17.2014 11.1947C16.9998 11.1947 16.8298 11.3447 16.8046 11.5451C16.6966 12.4091 16.2822 14.8526 15.6686 15.7726L15.603 15.8718C15.1238 16.599 14.4675 17.5946 12.0015 17.5946C9.53593 17.5946 8.8795 16.599 8.4003 15.8718L8.3343 15.7726C7.72189 14.8539 7.30672 12.4095 7.19872 11.5451C7.1735 11.3447 7.00353 11.1947 6.8015 11.1947C6.5811 11.1947 6.40152 11.0151 6.40152 10.7947V9.99471C6.40152 9.77393 6.22274 9.59473 6.00154 9.59473C5.78076 9.59473 5.60156 9.77393 5.60156 9.99471V10.7947C5.60156 11.3323 5.95715 11.7887 6.44554 11.9407C6.56835 12.7815 6.96631 15.1627 7.66873 16.2166L7.73234 16.3122C8.24552 17.091 9.10511 18.3946 12.0015 18.3946C14.8982 18.3946 15.7579 17.091 16.2711 16.3122L16.3342 16.2166C17.037 15.1627 17.435 12.7815 17.5578 11.9407C18.0462 11.7887 18.4014 11.3323 18.4014 10.7947Z" fill="#009FBD"/>
<path d="M16.5782 19.238L14.9782 18.4376C14.8346 18.366 14.6614 18.3872 14.539 18.492L11.999 20.6688L9.45943 18.492C9.33704 18.3868 9.16384 18.366 9.02022 18.4376L7.42025 19.238C7.30025 19.298 7.21864 19.414 7.20224 19.5471C7.18583 19.6799 7.23702 19.8124 7.33902 19.8995L10.139 22.2991C10.2146 22.3639 10.3065 22.3955 10.399 22.3955C10.5118 22.3955 10.6238 22.3479 10.703 22.2559C10.8465 22.0879 10.8274 21.8355 10.6594 21.6919L8.31658 19.6843L9.14059 19.2719L11.599 21.3795V23.5955C11.599 23.8163 11.7782 23.9955 11.999 23.9955C12.2202 23.9955 12.3989 23.8163 12.3989 23.5955V21.3795L14.8577 19.2719L15.6813 19.6843L13.3389 21.6919C13.1709 21.8355 13.1517 22.0879 13.2953 22.2559C13.3745 22.3479 13.4865 22.3955 13.5993 22.3955C13.6913 22.3955 13.7841 22.3639 13.8593 22.2991L16.6593 19.8995C16.7613 19.8124 16.8125 19.6799 16.796 19.5471C16.7797 19.4139 16.6982 19.298 16.5782 19.238Z" fill="#009FBD"/>
<path d="M23.981 23.4689L23.5811 22.2689C23.1035 20.8377 22.0379 19.1953 18.0015 19.1953C17.7808 19.1953 17.6016 19.3745 17.6016 19.5953C17.6016 19.8161 17.7808 19.9953 18.0015 19.9953C18.2571 19.9953 18.4979 20.0025 18.7259 20.0161L18.4176 21.0845C18.3596 21.2841 18.4648 21.4949 18.6591 21.5693L20.7591 22.3693C20.8063 22.3869 20.8543 22.3953 20.9015 22.3953C21.0615 22.3953 21.2127 22.2985 21.2743 22.1405L21.7515 20.9165C22.4619 21.4525 22.6823 22.1025 22.8223 22.5217L23.2223 23.7217C23.2779 23.8892 23.4343 23.9953 23.6015 23.9953C23.6435 23.9953 23.6863 23.9889 23.7283 23.9749C23.9378 23.9049 24.051 23.6781 23.981 23.4689ZM20.6731 21.4801L19.2883 20.9525L19.5343 20.1009C20.1523 20.1909 20.6499 20.3349 21.0507 20.5125L20.6731 21.4801Z" fill="#009FBD"/>
<path d="M10.4008 11.1974H10.8007C11.0219 11.1974 11.2007 11.0182 11.2007 10.7974C11.2007 10.5767 11.0219 10.3975 10.8007 10.3975H9.20076C8.97998 10.3975 8.80078 10.5767 8.80078 10.7974C8.80078 11.0182 8.97998 11.1974 9.20076 11.1974H9.60074C9.60074 11.4182 9.77994 11.5974 10.0007 11.5974C10.2219 11.5974 10.4008 11.4182 10.4008 11.1974Z" fill="#009FBD"/>
<path d="M6.39981 19.1953C2.08984 19.1953 0.803883 21.1209 0.420683 22.2689L0.0207026 23.4689C-0.0492811 23.6781 0.0639209 23.9048 0.273497 23.9749C0.315497 23.9889 0.358293 23.9953 0.399918 23.9953C0.567541 23.9953 0.723914 23.8893 0.779508 23.7217L1.17949 22.5217C1.32428 22.0881 1.58748 21.6233 2.0515 21.2117L2.42949 22.1453C2.49188 22.3 2.64108 22.3953 2.79989 22.3953C2.84189 22.3953 2.88469 22.3885 2.92669 22.3749L5.32667 21.5749C5.42867 21.5409 5.51266 21.4669 5.55987 21.3701C5.60707 21.2733 5.61307 21.1617 5.57665 21.0605L5.21543 20.0517C5.57904 20.0161 5.97143 19.9953 6.39981 19.9953C6.62101 19.9953 6.79979 19.8161 6.79979 19.5953C6.79979 19.3745 6.62101 19.1953 6.39981 19.1953ZM3.02986 21.4969L2.72546 20.7453C3.16584 20.5021 3.71826 20.3017 4.40746 20.1693L4.68547 20.9449L3.02986 21.4969Z" fill="#009FBD"/>
<path d="M14.4007 11.1974H14.8007C15.0219 11.1974 15.2007 11.0182 15.2007 10.7974C15.2007 10.5767 15.0219 10.3975 14.8007 10.3975H13.2008C12.98 10.3975 12.8008 10.5767 12.8008 10.7974C12.8008 11.0182 12.98 11.1974 13.2008 11.1974H13.6007C13.6007 11.4182 13.7799 11.5974 14.0007 11.5974C14.222 11.5974 14.4007 11.4182 14.4007 11.1974Z" fill="#009FBD"/>
</g>
<defs>
<clipPath id="clip0_560_8681">
<rect width="24" height="24" fill="white"/>
</clipPath>
</defs>
</svg>
