<svg width="151" height="151" viewBox="0 0 151 151" fill="none" xmlns="http://www.w3.org/2000/svg">
<path d="M119.545 56.6257C119.545 65.7486 116.839 74.1165 112.183 81.1002C108.772 86.1886 104.334 90.5075 99.1547 93.7796C93.9756 97.0518 88.1695 99.205 82.1091 100.101C79.97 100.479 77.7679 100.667 75.5029 100.667C73.2379 100.667 71.0358 100.479 68.8966 100.101C62.8363 99.205 57.0302 97.0518 51.8511 93.7796C46.6719 90.5075 42.2341 86.1886 38.8225 81.1002C33.9924 73.8542 31.4297 65.3339 31.4612 56.6257C31.4612 32.2769 51.1541 12.584 75.5029 12.584C99.8516 12.584 119.545 32.2769 119.545 56.6257Z" stroke="#009FBD" stroke-width="9.4375" stroke-linecap="round" stroke-linejoin="round"/>
<path d="M133.696 116.207L123.315 118.66C120.987 119.227 119.163 120.988 118.659 123.316L116.457 132.565C116.187 133.7 115.607 134.738 114.78 135.562C113.954 136.387 112.915 136.965 111.779 137.233C110.643 137.5 109.456 137.447 108.348 137.078C107.241 136.709 106.258 136.04 105.51 135.145L75.4984 100.666L45.4872 135.208C44.7386 136.103 43.7557 136.772 42.6485 137.141C41.5413 137.51 40.3534 137.563 39.2175 137.296C38.0816 137.028 37.0425 136.45 36.2164 135.625C35.3903 134.801 34.8098 133.763 34.5397 132.628L32.3376 123.379C32.0699 122.248 31.4927 121.213 30.6704 120.391C29.8482 119.568 28.8134 118.991 27.6818 118.723L17.3005 116.27C16.2128 116.009 15.214 115.464 14.4063 114.69C13.5986 113.916 13.011 112.942 12.7037 111.867C12.3965 110.791 12.3806 109.653 12.6576 108.57C12.9347 107.486 13.4948 106.496 14.2805 105.7L38.818 81.1621C42.2296 86.2505 46.6675 90.5693 51.8466 93.8415C57.0257 97.1137 62.8318 99.2669 68.8922 100.163C71.0313 100.54 73.2334 100.729 75.4984 100.729C77.7634 100.729 79.9655 100.54 82.1047 100.163C94.6251 98.3384 105.384 91.2288 112.179 81.1621L136.716 105.7C140.177 109.097 138.478 115.074 133.696 116.207Z" stroke="#009FBD" stroke-width="9.4375" stroke-linecap="round" stroke-linejoin="round"/>
<path d="M79.5024 37.02L83.2145 44.4442C83.7178 45.4508 85.0391 46.4575 86.2345 46.6463L92.9666 47.7788C97.2449 48.4708 98.2516 51.6167 95.1687 54.6996L89.9466 59.9217C89.0658 60.8025 88.5624 62.5013 88.877 63.7596L90.387 70.24C91.5824 75.3363 88.877 77.3496 84.347 74.6442L78.0553 70.9321C77.4164 70.5912 76.7033 70.4128 75.9791 70.4128C75.2549 70.4128 74.5418 70.5912 73.9028 70.9321L67.6112 74.6442C63.0812 77.2867 60.3758 75.3363 61.5712 70.24L63.0812 63.7596C63.3328 62.5642 62.8924 60.8025 62.0116 59.9217L56.7895 54.6996C53.7066 51.6167 54.7133 48.5338 58.9916 47.7788L65.7237 46.6463C66.8562 46.4575 68.1774 45.4508 68.6808 44.4442L72.3928 37.02C74.2174 32.9933 77.4891 32.9933 79.5024 37.02Z" fill="#009FBD" stroke="#009FBD" stroke-width="9.4375" stroke-linecap="round" stroke-linejoin="round"/>
</svg>
