<svg width="24" height="24" viewBox="0 0 24 24" fill="none" xmlns="http://www.w3.org/2000/svg">
<path d="M19.34 14.4902L18.34 12.8302C18.13 12.4602 17.94 11.7602 17.94 11.3502V8.82016C17.9388 7.70419 17.6217 6.61137 17.0253 5.66813C16.4289 4.72489 15.5776 3.96978 14.57 3.49016C14.3128 3.0335 13.9377 2.6543 13.4838 2.3922C13.03 2.13009 12.5141 1.99469 11.99 2.00016C10.9 2.00016 9.92 2.59016 9.4 3.52016C7.45 4.49016 6.1 6.50016 6.1 8.82016V11.3502C6.1 11.7602 5.91 12.4602 5.7 12.8202L4.69 14.4902C4.29 15.1602 4.2 15.9002 4.45 16.5802C4.69 17.2502 5.26 17.7702 6 18.0202C7.94 18.6802 9.98 19.0002 12.02 19.0002C14.06 19.0002 16.1 18.6802 18.04 18.0302C18.74 17.8002 19.28 17.2702 19.54 16.5802C19.8 15.8902 19.73 15.1302 19.34 14.4902ZM14.83 20.0102C14.6197 20.5923 14.2353 21.0956 13.729 21.4516C13.2226 21.8077 12.619 21.9992 12 22.0002C11.21 22.0002 10.43 21.6802 9.88 21.1102C9.56 20.8102 9.32 20.4102 9.18 20.0002C9.31 20.0202 9.44 20.0302 9.58 20.0502C9.81 20.0802 10.05 20.1102 10.29 20.1302C10.86 20.1802 11.44 20.2102 12.02 20.2102C12.59 20.2102 13.16 20.1802 13.72 20.1302C13.93 20.1102 14.14 20.1002 14.34 20.0702L14.83 20.0102Z" fill="white"/>
<path d="M11.95 15.2C11.6567 15.2 11.3933 15.17 11.16 15.11C10.9267 15.05 10.7167 14.9733 10.53 14.88C10.35 14.78 10.1933 14.6667 10.06 14.54C9.92667 14.4133 9.81333 14.2833 9.72 14.15C9.5 13.8433 9.34333 13.4933 9.25 13.1H10.2C10.26 13.34 10.3633 13.55 10.51 13.73C10.6367 13.8833 10.8133 14.0267 11.04 14.16C11.2667 14.2867 11.57 14.35 11.95 14.35C12.5033 14.35 12.9233 14.2167 13.21 13.95C13.5033 13.6833 13.65 13.35 13.65 12.95C13.65 12.55 13.5067 12.2167 13.22 11.95C12.9333 11.6833 12.5267 11.55 12 11.55H10.55V10.75L12.89 8.86L12.9 8.85H9.6V8H14.15V8.85L11.95 10.62L11.86 10.69L11.85 10.7H12C12.3733 10.7 12.7167 10.7633 13.03 10.89C13.3433 11.01 13.61 11.1733 13.83 11.38C14.0567 11.58 14.2333 11.8167 14.36 12.09C14.4867 12.3633 14.55 12.65 14.55 12.95C14.55 13.25 14.4867 13.5367 14.36 13.81C14.2333 14.0833 14.0567 14.3233 13.83 14.53C13.6033 14.73 13.33 14.89 13.01 15.01C12.69 15.1367 12.3367 15.2 11.95 15.2Z" fill="#FF1F1F"/>
</svg>
