<svg width="151" height="151" viewBox="0 0 151 151" fill="none" xmlns="http://www.w3.org/2000/svg">
<path d="M122.57 17.7353L124.332 21.3216C125.213 23.0832 127.415 24.7191 129.365 25.0966L131.756 25.4741C138.929 26.6695 140.627 31.9545 135.468 37.1766L133.266 39.3786C131.819 40.8886 131.001 43.7828 131.442 45.7961L131.756 47.1174C133.707 55.7999 129.114 59.1345 121.564 54.6045L119.928 53.6607C117.977 52.5282 114.832 52.5282 112.881 53.6607L111.245 54.6045C103.632 59.1974 99.0394 55.7999 101.053 47.1174L101.367 45.7961C101.808 43.7828 100.99 40.8886 99.5428 39.3786L97.3407 37.1136C92.1815 31.8916 93.8803 26.6066 101.053 25.4111L103.444 25.0336C105.331 24.7191 107.596 23.0203 108.477 21.2586L110.239 17.6724C113.636 10.8774 119.173 10.8774 122.57 17.7353Z" fill="#FF1F1F"/>
<path d="M135.714 63.4836C133.449 65.1194 127.094 68.1394 118.034 63.4836C117.529 63.22 116.968 63.0824 116.398 63.0824C115.829 63.0824 115.268 63.22 114.763 63.4836C111.176 65.3082 107.905 66.0632 105.325 66.0632C101.298 66.0632 98.4672 64.4902 97.083 63.4836C94.7551 61.7848 89.8476 56.9402 91.5464 46.6848C91.6364 46.1621 91.6097 45.626 91.4683 45.1147C91.3269 44.6035 91.0743 44.1299 90.7284 43.7277C86.3872 38.7573 83.9964 32.0882 85.6951 26.8661C86.3243 24.7898 85.003 22.0215 82.8639 22.0215H44.0443C25.1693 22.0215 12.5859 31.459 12.5859 53.4798V97.5215C12.5859 119.542 25.1693 128.98 44.0443 128.98H106.961C125.836 128.98 138.419 119.542 138.419 97.5215V64.6161C138.419 63.4207 136.721 62.7915 135.714 63.4836ZM90.2251 76.0669C86.0726 79.4015 80.7876 81.0373 75.5026 81.0373C70.2176 81.0373 64.8697 79.4015 60.7801 76.0669L41.0872 60.3377C40.1246 59.5387 39.5084 58.3982 39.3677 57.1551C39.2269 55.912 39.5726 54.6626 40.3322 53.6686C41.968 51.6552 44.9251 51.2777 46.9384 52.9136L66.6314 68.6427C71.413 72.4807 79.5293 72.4807 84.3109 68.6427C86.3243 67.0069 89.2814 67.3215 90.9172 69.3977C92.6159 71.4111 92.3014 74.4311 90.2251 76.0669Z" fill="#FF1F1F"/>
</svg>
