<svg width="25" height="25" viewBox="0 0 25 25" fill="none" xmlns="http://www.w3.org/2000/svg">
<circle cx="12.5" cy="12.5" r="12.5" fill="#B0B0B0"/>
<path fill-rule="evenodd" clip-rule="evenodd" d="M16.657 6.12026L17.6325 7.11573L15.8009 8.94739L13.8862 7.00954C13.3524 6.47025 12.6264 6.16463 11.8676 6.15965C11.1088 6.15467 10.3789 6.45075 9.83799 6.98299C9.30051 7.51717 8.99608 8.24223 8.9911 8.99999C8.98613 9.75776 9.28103 10.4867 9.81145 11.0279L12.758 14.0143L14.0123 15.2885C14.1339 15.409 14.2303 15.5524 14.2961 15.7104C14.3618 15.8683 14.3956 16.0378 14.3955 16.2089C14.3953 16.38 14.3612 16.5494 14.2951 16.7073C14.2291 16.8651 14.1324 17.0083 14.0106 17.1286C13.8888 17.2488 13.7444 17.3437 13.5857 17.4077C13.4271 17.4718 13.2573 17.5037 13.0861 17.5017C12.915 17.4997 12.746 17.4638 12.5889 17.396C12.4318 17.3283 12.2896 17.23 12.1707 17.1069L10.9264 15.8294L7.97977 12.843C6.96716 11.8118 6.40424 10.4215 6.41419 8.97625C6.42414 7.53103 7.00615 6.14858 8.03287 5.13142C9.06406 4.11918 10.454 3.55622 11.8989 3.56554C13.3439 3.57487 14.7264 4.15572 15.7445 5.18119L16.657 6.12026Z" fill="#009FBD"/>
<path fill-rule="evenodd" clip-rule="evenodd" d="M8.42869 19.235L7.45312 18.2395L9.28479 16.4079L11.1994 18.3457C11.7337 18.8842 12.4595 19.1893 13.2181 19.1943C13.9766 19.1992 14.7063 18.9037 15.2477 18.3723C15.786 17.8385 16.0909 17.1133 16.0959 16.3553C16.1009 15.5973 15.8055 14.8681 15.2742 14.3273L12.3276 11.3409L11.0733 10.0667C10.9539 9.94558 10.8596 9.80211 10.7956 9.6445C10.7317 9.48688 10.6994 9.31822 10.7006 9.14814C10.7018 8.97805 10.7366 8.80987 10.8028 8.65321C10.869 8.49654 10.9655 8.35445 11.0866 8.23505C11.2077 8.11566 11.3512 8.02129 11.5088 7.95734C11.6664 7.89338 11.8351 7.86111 12.0052 7.86234C12.1753 7.86357 12.3434 7.89829 12.5001 7.96451C12.6568 8.03074 12.7989 8.12718 12.9183 8.24832L14.1726 9.51921L17.1192 12.5056C18.1318 13.5368 18.6947 14.9272 18.6847 16.3724C18.6748 17.8176 18.0928 19.2 17.0661 20.2172C16.0349 21.2295 14.645 21.7924 13.2 21.7831C11.755 21.7738 10.3725 21.1929 9.35448 20.1674L8.42869 19.235Z" fill="#865DFF"/>
</svg>
