<svg width="151" height="151" viewBox="0 0 151 151" fill="none" xmlns="http://www.w3.org/2000/svg">
<path d="M66 3.34004C71.2076 -1.11335 79.7359 -1.11335 85.0189 3.34004L96.9434 13.6055C99.2076 15.568 103.434 17.1531 106.453 17.1531H119.283C127.283 17.1531 133.849 23.7199 133.849 31.7209V44.5527C133.849 47.4965 135.434 51.7989 137.396 54.0634L147.66 65.9894C152.113 71.1976 152.113 79.727 147.66 85.0106L137.396 96.9367C135.434 99.2011 133.849 103.428 133.849 106.447V119.279C133.849 127.28 127.283 133.847 119.283 133.847H106.453C103.509 133.847 99.2076 135.432 96.9434 137.395L85.0189 147.66C79.8113 152.113 71.283 152.113 66 147.66L54.0755 137.395C51.8113 135.432 47.5849 133.847 44.566 133.847H31.5094C23.5094 133.847 16.9434 127.28 16.9434 119.279V106.372C16.9434 103.428 15.3585 99.2011 13.4717 96.9367L3.28302 84.9352C-1.09434 79.727 -1.09434 71.2731 3.28302 66.0649L13.4717 54.0634C15.3585 51.7989 16.9434 47.572 16.9434 44.6282V31.6455C16.9434 23.6445 23.5094 17.0776 31.5094 17.0776H44.566C47.5094 17.0776 51.8113 15.4925 54.0755 13.53L66 3.34004Z" fill="#009FBD"/>
<path d="M40.8965 75.3745L62.701 97.2695L106.401 53.4795" stroke="white" stroke-width="13.5713" stroke-linecap="round" stroke-linejoin="round"/>
</svg>
