<svg width="25" height="20" viewBox="0 0 25 20" fill="none" xmlns="http://www.w3.org/2000/svg">
<path d="M20.5738 2.01775C19.0248 1.307 17.3637 0.783352 15.6269 0.483436C15.5953 0.477648 15.5637 0.492113 15.5474 0.521044C15.3338 0.901001 15.0971 1.39669 14.9314 1.78629C13.0634 1.50663 11.205 1.50663 9.37532 1.78629C9.20958 1.38802 8.96435 0.901001 8.74977 0.521044C8.73347 0.493078 8.70188 0.478613 8.67025 0.483436C6.93445 0.782394 5.27337 1.30604 3.7234 2.01775C3.70998 2.02354 3.69848 2.03319 3.69085 2.04572C0.540132 6.75282 -0.322981 11.3442 0.100433 15.8787C0.102349 15.9009 0.114803 15.9221 0.132046 15.9356C2.2108 17.4622 4.22443 18.389 6.20066 19.0033C6.23229 19.0129 6.2658 19.0013 6.28593 18.9753C6.75341 18.3369 7.17012 17.6638 7.52741 16.9559C7.5485 16.9144 7.52837 16.8652 7.48528 16.8489C6.8243 16.5981 6.19491 16.2924 5.58948 15.9453C5.5416 15.9173 5.53776 15.8488 5.58182 15.816C5.70922 15.7205 5.83666 15.6212 5.95831 15.5209C5.98032 15.5026 6.01099 15.4987 6.03687 15.5103C10.0143 17.3262 14.3203 17.3262 18.2507 15.5103C18.2766 15.4978 18.3073 15.5016 18.3302 15.5199C18.4519 15.6202 18.5793 15.7205 18.7077 15.816C18.7517 15.8488 18.7489 15.9173 18.701 15.9453C18.0955 16.2992 17.4662 16.5981 16.8042 16.8479C16.7611 16.8643 16.742 16.9144 16.763 16.9559C17.128 17.6628 17.5447 18.3359 18.0036 18.9743C18.0227 19.0013 18.0572 19.0129 18.0888 19.0033C20.0747 18.389 22.0883 17.4622 24.167 15.9356C24.1852 15.9221 24.1967 15.9018 24.1987 15.8797C24.7054 10.6373 23.3499 6.08356 20.6054 2.04668C20.5986 2.03319 20.5872 2.02354 20.5738 2.01775ZM8.12137 13.1177C6.92391 13.1177 5.93723 12.0183 5.93723 10.6682C5.93723 9.31805 6.90477 8.21869 8.12137 8.21869C9.34753 8.21869 10.3247 9.3277 10.3055 10.6682C10.3055 12.0183 9.33794 13.1177 8.12137 13.1177ZM16.1969 13.1177C14.9994 13.1177 14.0128 12.0183 14.0128 10.6682C14.0128 9.31805 14.9803 8.21869 16.1969 8.21869C17.4231 8.21869 18.4002 9.3277 18.381 10.6682C18.381 12.0183 17.4231 13.1177 16.1969 13.1177Z" fill="white"/>
</svg>
