<svg width="260" height="60" viewBox="0 0 260 60" fill="none" xmlns="http://www.w3.org/2000/svg">
<path fill-rule="evenodd" clip-rule="evenodd" d="M33.7181 8.41012L36.9295 11.6871L30.9 17.7166L24.5973 11.3375C22.8399 9.56224 20.4503 8.55617 17.9523 8.53979C15.4543 8.52341 13.0517 9.49804 11.2711 11.2501C9.50176 13.0085 8.49961 15.3953 8.48324 17.8898C8.46687 20.3842 9.43762 22.7839 11.1837 24.5654L20.8834 34.3963L25.0124 38.5908C25.4125 38.9873 25.7299 39.4593 25.9464 39.9793C26.1629 40.4994 26.2741 41.0572 26.2736 41.6205C26.273 42.1838 26.1608 42.7414 25.9433 43.261C25.7259 43.7807 25.4075 44.252 25.0067 44.6478C24.6058 45.0436 24.1305 45.356 23.6081 45.5668C23.0858 45.7777 22.5268 45.8828 21.9635 45.8762C21.4002 45.8696 20.8439 45.7513 20.3266 45.5283C19.8093 45.3052 19.3415 44.9818 18.95 44.5767L14.8539 40.3712L5.15409 30.5404C1.82071 27.1458 -0.0323267 22.5691 0.000426931 17.8116C0.0331806 13.0542 1.94906 8.50336 5.32886 5.155C8.72339 1.82285 13.2988 -0.0303254 18.0554 0.00037546C22.812 0.0310763 27.363 1.94315 30.7143 5.31885L33.7181 8.41012Z" fill="#009FBD"/>
<path fill-rule="evenodd" clip-rule="evenodd" d="M6.59593 51.5784L3.38452 48.3015L9.41409 42.2719L15.7168 48.651C17.4757 50.4236 19.8647 51.4278 22.3619 51.4442C24.859 51.4606 27.261 50.4878 29.043 48.7384C30.8149 46.9813 31.8189 44.5941 31.8353 42.0987C31.8517 39.6034 30.8791 37.2032 29.1304 35.423L19.4306 25.5922L15.3017 21.3977C14.9086 20.9989 14.598 20.5267 14.3875 20.0078C14.177 19.489 14.0707 18.9338 14.0748 18.3739C14.0788 17.814 14.1931 17.2604 14.4111 16.7446C14.6291 16.2289 14.9466 15.7612 15.3454 15.3681C15.7442 14.9751 16.2165 14.6645 16.7353 14.4539C17.2541 14.2434 17.8093 14.1372 18.3692 14.1412C18.9291 14.1453 19.4827 14.2596 19.9985 14.4776C20.5142 14.6956 20.9819 15.013 21.375 15.4118L25.5039 19.5954L35.2037 29.4262C38.5371 32.8208 40.3901 37.3976 40.3573 42.155C40.3246 46.9125 38.4087 51.4633 35.0289 54.8116C31.6344 58.1438 27.059 59.997 22.3024 59.9663C17.5458 59.9356 12.9947 58.0235 9.6435 54.6478L6.59593 51.5784Z" fill="#865DFF"/>
<path d="M64.9714 38.7122C63.4335 38.7122 61.9479 38.5375 60.5148 38.1879C59.0817 37.8384 57.902 37.384 56.9757 36.8247L58.9681 32.3156C59.8419 32.8225 60.8119 33.2332 61.878 33.5478C62.9616 33.8449 64.0102 33.9934 65.0239 33.9934C65.6181 33.9934 66.0812 33.9585 66.4133 33.8886C66.7628 33.8012 67.0163 33.6876 67.1735 33.5478C67.3308 33.3905 67.4095 33.207 67.4095 32.9972C67.4095 32.6652 67.226 32.403 66.859 32.2108C66.4919 32.0185 66.0026 31.8612 65.3909 31.7389C64.7967 31.5991 64.1413 31.4593 63.4247 31.3194C62.7082 31.1622 61.9829 30.9612 61.2488 30.7165C60.5323 30.4718 59.8681 30.1485 59.2564 29.7465C58.6622 29.3445 58.1816 28.8202 57.8146 28.1736C57.4476 27.5094 57.2641 26.688 57.2641 25.7093C57.2641 24.5733 57.5786 23.5422 58.2078 22.6159C58.8545 21.6721 59.807 20.9206 61.0653 20.3613C62.3411 19.8021 63.9228 19.5224 65.8103 19.5224C67.0512 19.5224 68.2746 19.6535 69.4805 19.9157C70.6864 20.1778 71.77 20.5798 72.7312 21.1216L70.8699 25.6044C69.9611 25.15 69.0785 24.8092 68.2222 24.582C67.3833 24.3548 66.5619 24.2412 65.7579 24.2412C65.1637 24.2412 64.6918 24.2937 64.3423 24.3985C63.9927 24.5034 63.7393 24.6432 63.582 24.818C63.4422 24.9928 63.3723 25.185 63.3723 25.3947C63.3723 25.7093 63.5558 25.9627 63.9228 26.155C64.2898 26.3297 64.7705 26.4783 65.3647 26.6006C65.9764 26.723 66.6405 26.8541 67.3571 26.9939C68.0911 27.1337 68.8164 27.3259 69.5329 27.5706C70.2495 27.8153 70.9049 28.1386 71.4991 28.5406C72.1108 28.9426 72.6002 29.4669 72.9672 30.1135C73.3342 30.7602 73.5177 31.5641 73.5177 32.5254C73.5177 33.6439 73.1944 34.675 72.5477 35.6188C71.9186 36.5451 70.9748 37.2966 69.7165 37.8733C68.4581 38.4326 66.8764 38.7122 64.9714 38.7122ZM82.0961 38.5549C80.1212 38.5549 78.5833 38.0831 77.4822 37.1393C76.3812 36.1781 75.8306 34.71 75.8306 32.7351V20.7284H81.7553V32.6827C81.7553 33.1196 81.8689 33.4604 82.0961 33.7051C82.3408 33.9497 82.6379 34.0721 82.9875 34.0721C83.4943 34.0721 83.94 33.941 84.3245 33.6788L85.7401 37.7947C85.2857 38.0568 84.7352 38.2491 84.0885 38.3714C83.4594 38.4938 82.7952 38.5549 82.0961 38.5549ZM73.8645 29.0649V24.7393H84.6915V29.0649H73.8645ZM95.9107 38.2928V35.7499L95.4913 35.0683V30.2446C95.4913 29.5455 95.2728 29.0125 94.8359 28.6455C94.4164 28.2784 93.7261 28.0949 92.7649 28.0949C92.1182 28.0949 91.4628 28.1998 90.7987 28.4095C90.1346 28.6018 89.5666 28.8727 89.0947 29.2222L87.2072 25.3161C88.0461 24.7918 89.051 24.3898 90.2219 24.1102C91.3929 23.8305 92.5377 23.6907 93.6562 23.6907C96.1205 23.6907 98.0254 24.2412 99.3712 25.3423C100.734 26.4433 101.416 28.1911 101.416 30.5854V38.2928H95.9107ZM91.8473 38.5549C90.6764 38.5549 89.6976 38.354 88.9112 37.952C88.1247 37.55 87.5305 37.017 87.1285 36.3528C86.7265 35.6712 86.5256 34.9197 86.5256 34.0983C86.5256 33.172 86.7615 32.3855 87.2334 31.7389C87.7053 31.0922 88.4218 30.6029 89.383 30.2708C90.3618 29.9388 91.5939 29.7727 93.0794 29.7727H96.068V32.6302H94.0232C93.394 32.6302 92.9309 32.7351 92.6338 32.9448C92.3541 33.1371 92.2143 33.4342 92.2143 33.8361C92.2143 34.1682 92.3367 34.4478 92.5813 34.675C92.8435 34.8848 93.193 34.9896 93.63 34.9896C94.0319 34.9896 94.399 34.8848 94.731 34.675C95.0806 34.4478 95.334 34.0983 95.4913 33.6264L96.2515 35.3829C96.0243 36.449 95.5437 37.2442 94.8097 37.7685C94.0756 38.2928 93.0882 38.5549 91.8473 38.5549ZM113.545 38.5549C112.234 38.5549 111.177 38.2928 110.373 37.7685C109.569 37.2442 108.984 36.4315 108.617 35.3304C108.267 34.2294 108.092 32.8225 108.092 31.1097C108.092 29.4144 108.285 28.025 108.669 26.9414C109.054 25.8404 109.648 25.0277 110.452 24.5034C111.273 23.9616 112.304 23.6907 113.545 23.6907C114.804 23.6907 115.957 23.9878 117.006 24.582C118.054 25.1763 118.893 26.0326 119.522 27.1512C120.152 28.2522 120.466 29.5717 120.466 31.1097C120.466 32.6477 120.152 33.976 119.522 35.0945C118.893 36.1955 118.054 37.0519 117.006 37.6636C115.957 38.2578 114.804 38.5549 113.545 38.5549ZM103.977 38.2928V18.8408H109.901V25.8666L109.639 31.1097L109.613 36.3528V38.2928H103.977ZM112.13 33.941C112.566 33.941 112.96 33.8361 113.309 33.6264C113.659 33.4167 113.938 33.1021 114.148 32.6827C114.358 32.2457 114.463 31.7214 114.463 31.1097C114.463 30.4805 114.358 29.965 114.148 29.563C113.938 29.1436 113.659 28.829 113.309 28.6192C112.96 28.4095 112.566 28.3047 112.13 28.3047C111.693 28.3047 111.299 28.4095 110.95 28.6192C110.6 28.829 110.321 29.1436 110.111 29.563C109.901 29.965 109.796 30.4805 109.796 31.1097C109.796 31.7214 109.901 32.2457 110.111 32.6827C110.321 33.1021 110.6 33.4167 110.95 33.6264C111.299 33.8361 111.693 33.941 112.13 33.941ZM122.333 38.2928V18.8408H128.257V38.2928H122.333ZM138.8 38.5549C137.053 38.5549 135.523 38.2316 134.213 37.585C132.919 36.9383 131.914 36.0557 131.198 34.9372C130.481 33.8012 130.123 32.5254 130.123 31.1097C130.123 29.6591 130.473 28.3746 131.172 27.256C131.888 26.1375 132.858 25.2636 134.082 24.6345C135.322 24.0053 136.712 23.6907 138.25 23.6907C139.666 23.6907 140.968 23.9703 142.156 24.5296C143.362 25.0889 144.323 25.919 145.04 27.0201C145.774 28.1211 146.141 29.4844 146.141 31.1097C146.141 31.3194 146.132 31.5554 146.115 31.8175C146.097 32.0622 146.08 32.2894 146.062 32.4991H135.025V29.6416H142.916L140.688 30.4019C140.688 29.8426 140.583 29.3708 140.373 28.9863C140.181 28.5843 139.91 28.2784 139.561 28.0687C139.211 27.8415 138.792 27.7279 138.302 27.7279C137.813 27.7279 137.385 27.8415 137.018 28.0687C136.668 28.2784 136.397 28.5843 136.205 28.9863C136.013 29.3708 135.917 29.8426 135.917 30.4019V31.2932C135.917 31.9049 136.039 32.4292 136.284 32.8662C136.528 33.3031 136.878 33.6352 137.332 33.8624C137.787 34.0721 138.337 34.1769 138.984 34.1769C139.648 34.1769 140.19 34.0896 140.609 33.9148C141.046 33.74 141.501 33.4779 141.973 33.1283L145.066 36.248C144.367 36.9995 143.502 37.5762 142.471 37.9782C141.457 38.3627 140.234 38.5549 138.8 38.5549ZM156.054 38.2928V19.9419H165.858C168.392 19.9419 170.262 20.3963 171.468 21.3051C172.674 22.1964 173.277 23.3412 173.277 24.7393C173.277 25.6656 173.015 26.4958 172.491 27.2298C171.984 27.9464 171.241 28.5144 170.262 28.9338C169.284 29.3533 168.078 29.563 166.645 29.563L167.169 28.1474C168.602 28.1474 169.834 28.3483 170.865 28.7503C171.914 29.1523 172.718 29.7378 173.277 30.5068C173.854 31.2583 174.142 32.1671 174.142 33.2332C174.142 34.8236 173.478 36.0645 172.15 36.9558C170.839 37.8471 168.917 38.2928 166.382 38.2928H156.054ZM162.136 33.9672H165.858C166.54 33.9672 167.047 33.8449 167.379 33.6002C167.728 33.3555 167.903 32.9972 167.903 32.5254C167.903 32.0535 167.728 31.6952 167.379 31.4505C167.047 31.2058 166.54 31.0835 165.858 31.0835H161.716V26.9939H165.019C165.718 26.9939 166.225 26.8803 166.54 26.6531C166.872 26.4084 167.038 26.0676 167.038 25.6307C167.038 25.1763 166.872 24.8355 166.54 24.6083C166.225 24.3811 165.718 24.2675 165.019 24.2675H162.136V33.9672ZM183.722 38.5549C182.097 38.5549 180.655 38.2404 179.397 37.6112C178.156 36.9645 177.177 36.0819 176.461 34.9634C175.744 33.8449 175.386 32.5603 175.386 31.1097C175.386 29.6591 175.744 28.3746 176.461 27.256C177.177 26.1375 178.156 25.2636 179.397 24.6345C180.655 24.0053 182.097 23.6907 183.722 23.6907C185.348 23.6907 186.79 24.0053 188.048 24.6345C189.306 25.2636 190.285 26.1375 190.984 27.256C191.701 28.3746 192.059 29.6591 192.059 31.1097C192.059 32.5603 191.701 33.8449 190.984 34.9634C190.285 36.0819 189.306 36.9645 188.048 37.6112C186.79 38.2404 185.348 38.5549 183.722 38.5549ZM183.722 33.941C184.159 33.941 184.553 33.8361 184.902 33.6264C185.252 33.4167 185.531 33.1021 185.741 32.6827C185.951 32.2457 186.056 31.7214 186.056 31.1097C186.056 30.4805 185.951 29.965 185.741 29.563C185.531 29.1436 185.252 28.829 184.902 28.6192C184.553 28.4095 184.159 28.3047 183.722 28.3047C183.286 28.3047 182.892 28.4095 182.543 28.6192C182.193 28.829 181.914 29.1436 181.704 29.563C181.494 29.965 181.389 30.4805 181.389 31.1097C181.389 31.7214 181.494 32.2457 181.704 32.6827C181.914 33.1021 182.193 33.4167 182.543 33.6264C182.892 33.8361 183.286 33.941 183.722 33.941ZM193.913 38.2928V23.9529H199.55V28.2784L198.632 27.0463C199.069 25.9278 199.768 25.0889 200.729 24.5296C201.691 23.9703 202.844 23.6907 204.19 23.6907V28.9338C203.928 28.8989 203.692 28.8727 203.482 28.8552C203.29 28.8377 203.089 28.829 202.879 28.829C201.988 28.829 201.254 29.0649 200.677 29.5368C200.118 29.9912 199.838 30.7864 199.838 31.9224V38.2928H193.913ZM205.869 38.2928V23.9529H211.505V28.2784L210.588 27.0463C211.025 25.9278 211.724 25.0889 212.685 24.5296C213.646 23.9703 214.8 23.6907 216.146 23.6907V28.9338C215.883 28.8989 215.647 28.8727 215.438 28.8552C215.246 28.8377 215.045 28.829 214.835 28.829C213.943 28.829 213.209 29.0649 212.633 29.5368C212.073 29.9912 211.794 30.7864 211.794 31.9224V38.2928H205.869ZM225.273 38.5549C223.648 38.5549 222.206 38.2404 220.948 37.6112C219.707 36.9645 218.728 36.0819 218.011 34.9634C217.295 33.8449 216.937 32.5603 216.937 31.1097C216.937 29.6591 217.295 28.3746 218.011 27.256C218.728 26.1375 219.707 25.2636 220.948 24.6345C222.206 24.0053 223.648 23.6907 225.273 23.6907C226.898 23.6907 228.34 24.0053 229.599 24.6345C230.857 25.2636 231.836 26.1375 232.535 27.256C233.251 28.3746 233.61 29.6591 233.61 31.1097C233.61 32.5603 233.251 33.8449 232.535 34.9634C231.836 36.0819 230.857 36.9645 229.599 37.6112C228.34 38.2404 226.898 38.5549 225.273 38.5549ZM225.273 33.941C225.71 33.941 226.103 33.8361 226.453 33.6264C226.802 33.4167 227.082 33.1021 227.292 32.6827C227.501 32.2457 227.606 31.7214 227.606 31.1097C227.606 30.4805 227.501 29.965 227.292 29.563C227.082 29.1436 226.802 28.829 226.453 28.6192C226.103 28.4095 225.71 28.3047 225.273 28.3047C224.836 28.3047 224.443 28.4095 224.093 28.6192C223.744 28.829 223.464 29.1436 223.254 29.563C223.045 29.965 222.94 30.4805 222.94 31.1097C222.94 31.7214 223.045 32.2457 223.254 32.6827C223.464 33.1021 223.744 33.4167 224.093 33.6264C224.443 33.8361 224.836 33.941 225.273 33.941ZM238.593 38.2928L233.612 23.9529H239.222L242.997 35.5926H240.297L244.255 23.9529H249.289L253.064 35.5926H250.442L254.348 23.9529H259.539L254.558 38.2928H248.791L245.776 29.0649H247.506L244.36 38.2928H238.593Z" fill="#009FBD"/>
</svg>
