<svg width="24" height="20" viewBox="0 0 24 20" fill="none" xmlns="http://www.w3.org/2000/svg">
<path fill-rule="evenodd" clip-rule="evenodd" d="M14.2531 2.95196C12.1457 3.8285 7.93384 5.64272 1.61756 8.39462C0.591901 8.80249 0.0546126 9.20151 0.00570031 9.59167C-0.0769613 10.2511 0.748767 10.5107 1.8732 10.8643C2.02614 10.9124 2.18462 10.9622 2.34709 11.015C3.45335 11.3746 4.94147 11.7953 5.71508 11.812C6.41682 11.8272 7.20004 11.5379 8.06475 10.9441C13.9662 6.96043 17.0126 4.94689 17.2039 4.90348C17.3388 4.87285 17.5258 4.83435 17.6525 4.94695C17.7792 5.05956 17.7667 5.27281 17.7533 5.33002C17.6715 5.67874 14.4302 8.69212 12.7528 10.2516C12.2299 10.7377 11.859 11.0826 11.7832 11.1613C11.6133 11.3377 11.4402 11.5046 11.2738 11.665C10.2461 12.6558 9.47538 13.3987 11.3165 14.612C12.2013 15.195 12.9092 15.6772 13.6156 16.1582C14.3869 16.6835 15.1563 17.2074 16.1518 17.86C16.4054 18.0262 16.6476 18.1989 16.8835 18.3671C17.7812 19.0071 18.5877 19.582 19.5841 19.4903C20.1631 19.4371 20.7611 18.8927 21.0648 17.269C21.7826 13.4318 23.1935 5.11777 23.5195 1.69176C23.5481 1.3916 23.5122 1.00745 23.4833 0.838818C23.4545 0.670186 23.3941 0.429919 23.1749 0.252056C22.9154 0.0414152 22.5146 -0.00300424 22.3354 0.000153058C21.5204 0.0145086 20.2701 0.449254 14.2531 2.95196Z" fill="white"/>
</svg>
