<svg width="80" height="80" viewBox="0 0 80 80" fill="none" xmlns="http://www.w3.org/2000/svg">
<path d="M60 62.8659H57.4667C54.8 62.8659 52.2667 63.8992 50.4 65.7659L44.7 71.3992C42.1 73.9659 37.8667 73.9659 35.2667 71.3992L29.5667 65.7659C27.7 63.8992 25.1333 62.8659 22.5 62.8659H20C14.4667 62.8659 10 58.4325 10 52.9659V16.5992C10 11.1326 14.4667 6.69922 20 6.69922H60C65.5333 6.69922 70 11.1326 70 16.5992V52.9659C70 58.3992 65.5333 62.8659 60 62.8659Z" stroke="#B0B0B0" stroke-width="5" stroke-miterlimit="10" stroke-linecap="round" stroke-linejoin="round"/>
<path d="M53.3337 52.1998C53.3337 46.1998 47.367 41.3331 40.0003 41.3331C32.6337 41.3331 26.667 46.1998 26.667 52.1998M40.0003 33.3331C41.0203 33.3331 42.0302 33.1322 42.9725 32.7419C43.9148 32.3516 44.771 31.7795 45.4922 31.0583C46.2134 30.3371 46.7855 29.4809 47.1758 28.5386C47.5661 27.5963 47.767 26.5864 47.767 25.5665C47.767 24.5465 47.5661 23.5366 47.1758 22.5943C46.7855 21.652 46.2134 20.7958 45.4922 20.0746C44.771 19.3534 43.9148 18.7813 42.9725 18.391C42.0302 18.0007 41.0203 17.7998 40.0003 17.7998C37.9405 17.7998 35.965 18.6181 34.5085 20.0746C33.0519 21.5311 32.2337 23.5066 32.2337 25.5665C32.2337 27.6263 33.0519 29.6018 34.5085 31.0583C35.965 32.5149 37.9405 33.3331 40.0003 33.3331Z" stroke="#B0B0B0" stroke-width="5" stroke-linecap="round" stroke-linejoin="round"/>
</svg>
