<svg width="86" height="86" viewBox="0 0 86 86" fill="none" xmlns="http://www.w3.org/2000/svg">
<path d="M32.2501 78.8337H53.7501C71.6667 78.8337 78.8334 71.667 78.8334 53.7503V32.2503C78.8334 14.3337 71.6667 7.16699 53.7501 7.16699H32.2501C14.3334 7.16699 7.16675 14.3337 7.16675 32.2503V53.7503C7.16675 71.667 14.3334 78.8337 32.2501 78.8337Z" stroke="#009FBD" stroke-width="5.375" stroke-linecap="round" stroke-linejoin="round"/>
<path d="M62.7084 43.0003C62.7084 53.8937 53.8934 62.7087 43.0001 62.7087C32.1067 62.7087 25.4776 51.7437 25.4776 51.7437M25.4776 51.7437H34.3642M25.4776 51.7437V61.5978M23.2917 43.0003C23.2917 32.107 32.0351 23.292 43.0001 23.292C56.1509 23.292 62.7084 34.257 62.7084 34.257M62.7084 34.257V24.4028M62.7084 34.257H53.9651" stroke="#009FBD" stroke-width="5.375" stroke-linecap="round" stroke-linejoin="round"/>
</svg>
