<svg width="15" height="15" viewBox="0 0 15 15" fill="none" xmlns="http://www.w3.org/2000/svg">
<g id="Iconsax/Linear/edit" clip-path="url(#clip0_1334_3468)">
<path id="Vector" d="M6.875 1.25H5.625C2.5 1.25 1.25 2.5 1.25 5.625V9.375C1.25 12.5 2.5 13.75 5.625 13.75H9.375C12.5 13.75 13.75 12.5 13.75 9.375V8.125" stroke="#292C31" stroke-width="0.9375" stroke-linecap="round" stroke-linejoin="round"/>
<path id="Vector_2" d="M10.0252 1.88827L5.10017 6.81327C4.91267 7.00077 4.72517 7.36952 4.68767 7.63827L4.41892 9.51952C4.31892 10.2008 4.80017 10.6758 5.48142 10.582L7.36267 10.3133C7.62517 10.2758 7.99392 10.0883 8.18767 9.90077L13.1127 4.97577C13.9627 4.12577 14.3627 3.13827 13.1127 1.88827C11.8627 0.638268 10.8752 1.03827 10.0252 1.88827Z" stroke="#292C31" stroke-width="0.9375" stroke-miterlimit="10" stroke-linecap="round" stroke-linejoin="round"/>
<path id="Vector_3" d="M9.31885 2.59375C9.52609 3.32967 9.91883 4.00004 10.4594 4.54065C11.0001 5.08127 11.6704 5.47401 12.4063 5.68125" stroke="#292C31" stroke-width="0.9375" stroke-miterlimit="10" stroke-linecap="round" stroke-linejoin="round"/>
</g>
<defs>
<clipPath id="clip0_1334_3468">
<rect width="15" height="15" fill="white"/>
</clipPath>
</defs>
</svg>
