<svg width="148" height="34" viewBox="0 0 148 34" fill="none" xmlns="http://www.w3.org/2000/svg">
<path fill-rule="evenodd" clip-rule="evenodd" d="M19.1176 4.76839L20.9384 6.62635L17.5197 10.045L13.9462 6.42817C12.9498 5.42162 11.5949 4.85119 10.1786 4.84191C8.76229 4.83262 7.40005 5.38522 6.39049 6.37861C5.38733 7.37561 4.81913 8.72887 4.80984 10.1432C4.80056 11.5575 5.35096 12.9181 6.34095 13.9282L11.8405 19.5021L14.1816 21.8803C14.4084 22.1051 14.5884 22.3727 14.7112 22.6676C14.8339 22.9624 14.8969 23.2787 14.8966 23.5981C14.8963 23.9175 14.8327 24.2336 14.7094 24.5282C14.5861 24.8229 14.4056 25.0901 14.1783 25.3145C13.9511 25.5389 13.6815 25.716 13.3854 25.8356C13.0892 25.9551 12.7723 26.0147 12.4529 26.011C12.1336 26.0072 11.8181 25.9402 11.5248 25.8137C11.2315 25.6872 10.9663 25.5038 10.7443 25.2742L8.42187 22.8898L2.92228 17.3159C1.03231 15.3912 -0.0183287 12.7963 0.000242062 10.0989C0.0188128 7.40148 1.10508 4.82125 3.02137 2.9228C4.946 1.03352 7.54017 -0.017194 10.2371 0.000212879C12.934 0.0176197 15.5143 1.10173 17.4144 3.01569L19.1176 4.76839Z" fill="#009FBD"/>
<path fill-rule="evenodd" clip-rule="evenodd" d="M3.73976 29.2438L1.91895 27.3859L5.3376 23.9672L8.91111 27.5841C9.90837 28.5891 11.2629 29.1585 12.6788 29.1678C14.0946 29.1771 15.4565 28.6255 16.4668 27.6336C17.4715 26.6374 18.0407 25.2839 18.05 23.8691C18.0593 22.4542 17.5079 21.0933 16.5164 20.084L11.0168 14.5101L8.67576 12.1319C8.45292 11.9058 8.27678 11.6381 8.15742 11.3439C8.03807 11.0497 7.97782 10.7349 7.98012 10.4175C7.98242 10.1 8.04722 9.78614 8.17083 9.49373C8.29443 9.20132 8.47444 8.93613 8.70054 8.71328C8.92664 8.49044 9.19442 8.3143 9.48859 8.19494C9.78276 8.07559 10.0976 8.01534 10.415 8.01764C10.7325 8.01994 11.0463 8.08474 11.3388 8.20835C11.6312 8.33195 11.8964 8.51194 12.1192 8.73804L14.4602 11.1101L19.9598 16.684C21.8498 18.6086 22.9004 21.2036 22.8819 23.901C22.8633 26.5984 21.777 29.1786 19.8607 31.077C17.9361 32.9663 15.3419 34.017 12.645 33.9996C9.94814 33.9822 7.36776 32.8981 5.46767 30.9841L3.73976 29.2438Z" fill="#865DFF"/>
<path d="M36.8376 21.7749C35.9656 21.7749 35.1233 21.6758 34.3108 21.4777C33.4982 21.2795 32.8294 21.0218 32.3042 20.7047L33.4338 18.1482C33.9293 18.4355 34.4793 18.6684 35.0837 18.8468C35.6981 19.0152 36.2926 19.0995 36.8674 19.0995C37.2043 19.0995 37.4669 19.0796 37.6551 19.04C37.8533 18.9905 37.997 18.926 38.0862 18.8468C38.1754 18.7576 38.22 18.6535 38.22 18.5346C38.22 18.3464 38.1159 18.1977 37.9078 18.0887C37.6997 17.9797 37.4223 17.8905 37.0755 17.8212C36.7385 17.7419 36.367 17.6626 35.9607 17.5834C35.5544 17.4942 35.1432 17.3802 34.727 17.2415C34.3207 17.1028 33.9442 16.9194 33.5973 16.6915C33.2604 16.4636 32.9879 16.1663 32.7798 15.7997C32.5717 15.4232 32.4677 14.9574 32.4677 14.4025C32.4677 13.7584 32.6461 13.1738 33.0028 12.6486C33.3694 12.1135 33.9095 11.6874 34.6229 11.3703C35.3463 11.0532 36.2431 10.8947 37.3133 10.8947C38.0168 10.8947 38.7105 10.969 39.3942 11.1176C40.0779 11.2663 40.6923 11.4942 41.2373 11.8013L40.182 14.3431C39.6667 14.0854 39.1663 13.8922 38.6807 13.7634C38.2051 13.6345 37.7394 13.5701 37.2835 13.5701C36.9466 13.5701 36.6791 13.5999 36.4809 13.6593C36.2827 13.7188 36.139 13.798 36.0499 13.8971C35.9706 13.9962 35.9309 14.1052 35.9309 14.2241C35.9309 14.4025 36.035 14.5462 36.2431 14.6552C36.4512 14.7543 36.7237 14.8385 37.0606 14.9079C37.4074 14.9772 37.784 15.0516 38.1902 15.1308C38.6064 15.2101 39.0177 15.3191 39.4239 15.4578C39.8302 15.5966 40.2018 15.7799 40.5387 16.0078C40.8855 16.2357 41.163 16.533 41.3711 16.8996C41.5792 17.2663 41.6832 17.7221 41.6832 18.2671C41.6832 18.9013 41.4999 19.4859 41.1333 20.021C40.7765 20.5462 40.2414 20.9723 39.528 21.2993C38.8145 21.6164 37.9177 21.7749 36.8376 21.7749ZM46.547 21.6857C45.4273 21.6857 44.5553 21.4182 43.931 20.8831C43.3067 20.3381 42.9946 19.5057 42.9946 18.386V11.5784H46.3538V18.3563C46.3538 18.604 46.4182 18.7972 46.547 18.936C46.6858 19.0747 46.8542 19.144 47.0524 19.144C47.3398 19.144 47.5925 19.0697 47.8105 18.9211L48.6131 21.2547C48.3555 21.4033 48.0433 21.5123 47.6767 21.5817C47.32 21.6511 46.9434 21.6857 46.547 21.6857ZM41.8798 16.3051V13.8525H48.0185V16.3051H41.8798ZM54.3797 21.5371V20.0953L54.1418 19.7089V16.9739C54.1418 16.5776 54.018 16.2753 53.7702 16.0672C53.5324 15.8592 53.141 15.7551 52.596 15.7551C52.2294 15.7551 51.8578 15.8146 51.4812 15.9335C51.1047 16.0425 50.7826 16.1961 50.5151 16.3942L49.4449 14.1795C49.9205 13.8823 50.4903 13.6544 51.1542 13.4958C51.8181 13.3373 52.4672 13.258 53.1014 13.258C54.4986 13.258 55.5787 13.5701 56.3417 14.1944C57.1146 14.8187 57.501 15.8096 57.501 17.1672V21.5371H54.3797ZM52.0758 21.6857C51.4119 21.6857 50.8569 21.5718 50.411 21.3439C49.9651 21.116 49.6282 20.8137 49.4003 20.4372C49.1724 20.0507 49.0584 19.6246 49.0584 19.1589C49.0584 18.6337 49.1922 18.1878 49.4598 17.8212C49.7273 17.4545 50.1336 17.1771 50.6786 16.9888C51.2335 16.8005 51.9321 16.7064 52.7744 16.7064H54.4688V18.3265H53.3095C52.9527 18.3265 52.6901 18.386 52.5217 18.5049C52.3631 18.6139 52.2839 18.7824 52.2839 19.0103C52.2839 19.1985 52.3532 19.3571 52.492 19.4859C52.6406 19.6048 52.8388 19.6643 53.0865 19.6643C53.3144 19.6643 53.5225 19.6048 53.7108 19.4859C53.909 19.3571 54.0527 19.1589 54.1418 18.8914L54.5729 19.8872C54.4441 20.4917 54.1716 20.9426 53.7554 21.2398C53.3392 21.5371 52.7793 21.6857 52.0758 21.6857ZM64.3781 21.6857C63.6349 21.6857 63.0354 21.5371 62.5796 21.2398C62.1237 20.9426 61.7918 20.4818 61.5837 19.8575C61.3855 19.2332 61.2864 18.4355 61.2864 17.4644C61.2864 16.5033 61.3954 15.7155 61.6134 15.1011C61.8314 14.4768 62.1683 14.016 62.6242 13.7188C63.0899 13.4116 63.6745 13.258 64.3781 13.258C65.0915 13.258 65.7456 13.4265 66.3401 13.7634C66.9347 14.1003 67.4103 14.5858 67.767 15.22C68.1238 15.8443 68.3021 16.5924 68.3021 17.4644C68.3021 18.3364 68.1238 19.0895 67.767 19.7237C67.4103 20.348 66.9347 20.8336 66.3401 21.1804C65.7456 21.5173 65.0915 21.6857 64.3781 21.6857ZM58.9528 21.5371V10.5082H62.312V14.4917L62.1634 17.4644L62.1485 20.4372V21.5371H58.9528ZM63.5754 19.0697C63.8232 19.0697 64.0461 19.0103 64.2443 18.8914C64.4425 18.7725 64.601 18.5941 64.72 18.3563C64.8389 18.1085 64.8983 17.8113 64.8983 17.4644C64.8983 17.1077 64.8389 16.8154 64.72 16.5875C64.601 16.3497 64.4425 16.1713 64.2443 16.0524C64.0461 15.9335 63.8232 15.874 63.5754 15.874C63.3277 15.874 63.1048 15.9335 62.9066 16.0524C62.7084 16.1713 62.5498 16.3497 62.4309 16.5875C62.312 16.8154 62.2526 17.1077 62.2526 17.4644C62.2526 17.8113 62.312 18.1085 62.4309 18.3563C62.5498 18.5941 62.7084 18.7725 62.9066 18.8914C63.1048 19.0103 63.3277 19.0697 63.5754 19.0697ZM69.3603 21.5371V10.5082H72.7196V21.5371H69.3603ZM78.6973 21.6857C77.7064 21.6857 76.8394 21.5024 76.0962 21.1358C75.3629 20.7691 74.7931 20.2687 74.3869 19.6345C73.9806 18.9905 73.7774 18.2671 73.7774 17.4644C73.7774 16.642 73.9756 15.9137 74.372 15.2795C74.7783 14.6453 75.3282 14.1498 76.0219 13.7931C76.7254 13.4364 77.5132 13.258 78.3852 13.258C79.1878 13.258 79.9261 13.4165 80.5999 13.7336C81.2836 14.0507 81.8286 14.5214 82.2349 15.1457C82.6511 15.77 82.8592 16.5429 82.8592 17.4644C82.8592 17.5833 82.8542 17.7171 82.8443 17.8658C82.8344 18.0045 82.8245 18.1333 82.8146 18.2522H76.557V16.6321H81.0309L79.7675 17.0631C79.7675 16.746 79.7081 16.4785 79.5892 16.2605C79.4802 16.0326 79.3266 15.8592 79.1284 15.7402C78.9302 15.6114 78.6924 15.547 78.4149 15.547C78.1375 15.547 77.8947 15.6114 77.6866 15.7402C77.4884 15.8592 77.3348 16.0326 77.2258 16.2605C77.1168 16.4785 77.0623 16.746 77.0623 17.0631V17.5685C77.0623 17.9153 77.1317 18.2126 77.2704 18.4603C77.4091 18.708 77.6073 18.8963 77.865 19.0251C78.1226 19.144 78.4347 19.2035 78.8014 19.2035C79.1779 19.2035 79.4851 19.154 79.7229 19.0549C79.9707 18.9558 80.2283 18.8071 80.4959 18.6089L82.2498 20.3777C81.8534 20.8038 81.3629 21.1308 80.7783 21.3587C80.2035 21.5767 79.5099 21.6857 78.6973 21.6857ZM88.4796 21.5371V11.1325H94.0386C95.4754 11.1325 96.5357 11.3901 97.2194 11.9054C97.9032 12.4108 98.245 13.0598 98.245 13.8525C98.245 14.3777 98.0964 14.8484 97.7991 15.2646C97.5118 15.6709 97.0906 15.9929 96.5357 16.2307C95.9808 16.4686 95.2971 16.5875 94.4845 16.5875L94.7818 15.7848C95.5943 15.7848 96.2929 15.8988 96.8776 16.1267C97.4721 16.3546 97.9279 16.6866 98.245 17.1226C98.572 17.5487 98.7355 18.0639 98.7355 18.6684C98.7355 19.5701 98.359 20.2737 97.6059 20.7791C96.8627 21.2844 95.7727 21.5371 94.3359 21.5371H88.4796ZM91.9279 19.0846H94.0386C94.4251 19.0846 94.7124 19.0152 94.9007 18.8765C95.0989 18.7378 95.198 18.5346 95.198 18.2671C95.198 17.9995 95.0989 17.7964 94.9007 17.6577C94.7124 17.5189 94.4251 17.4496 94.0386 17.4496H91.6901V15.1308H93.563C93.9593 15.1308 94.2467 15.0664 94.4251 14.9376C94.6133 14.7989 94.7075 14.6056 94.7075 14.3579C94.7075 14.1003 94.6133 13.907 94.4251 13.7782C94.2467 13.6494 93.9593 13.585 93.563 13.585H91.9279V19.0846ZM104.167 21.6857C103.246 21.6857 102.428 21.5074 101.715 21.1507C101.011 20.784 100.456 20.2836 100.05 19.6494C99.6438 19.0152 99.4406 18.2869 99.4406 17.4644C99.4406 16.642 99.6438 15.9137 100.05 15.2795C100.456 14.6453 101.011 14.1498 101.715 13.7931C102.428 13.4364 103.246 13.258 104.167 13.258C105.089 13.258 105.906 13.4364 106.62 13.7931C107.333 14.1498 107.888 14.6453 108.285 15.2795C108.691 15.9137 108.894 16.642 108.894 17.4644C108.894 18.2869 108.691 19.0152 108.285 19.6494C107.888 20.2836 107.333 20.784 106.62 21.1507C105.906 21.5074 105.089 21.6857 104.167 21.6857ZM104.167 19.0697C104.415 19.0697 104.638 19.0103 104.836 18.8914C105.034 18.7725 105.193 18.5941 105.312 18.3563C105.431 18.1085 105.49 17.8113 105.49 17.4644C105.49 17.1077 105.431 16.8154 105.312 16.5875C105.193 16.3497 105.034 16.1713 104.836 16.0524C104.638 15.9335 104.415 15.874 104.167 15.874C103.92 15.874 103.697 15.9335 103.498 16.0524C103.3 16.1713 103.142 16.3497 103.023 16.5875C102.904 16.8154 102.844 17.1077 102.844 17.4644C102.844 17.8113 102.904 18.1085 103.023 18.3563C103.142 18.5941 103.3 18.7725 103.498 18.8914C103.697 19.0103 103.92 19.0697 104.167 19.0697ZM109.945 21.5371V13.4066H113.141V15.8592L112.621 15.1606C112.869 14.5264 113.265 14.0507 113.81 13.7336C114.355 13.4165 115.009 13.258 115.772 13.258V16.2307C115.623 16.2109 115.49 16.1961 115.371 16.1862C115.262 16.1762 115.148 16.1713 115.029 16.1713C114.523 16.1713 114.107 16.3051 113.78 16.5726C113.463 16.8303 113.305 17.2811 113.305 17.9252V21.5371H109.945ZM116.724 21.5371V13.4066H119.92V15.8592L119.4 15.1606C119.647 14.5264 120.044 14.0507 120.589 13.7336C121.134 13.4165 121.788 13.258 122.551 13.258V16.2307C122.402 16.2109 122.268 16.1961 122.149 16.1862C122.04 16.1762 121.926 16.1713 121.807 16.1713C121.302 16.1713 120.886 16.3051 120.559 16.5726C120.242 16.8303 120.083 17.2811 120.083 17.9252V21.5371H116.724ZM127.726 21.6857C126.804 21.6857 125.987 21.5074 125.273 21.1507C124.57 20.784 124.015 20.2836 123.609 19.6494C123.202 19.0152 122.999 18.2869 122.999 17.4644C122.999 16.642 123.202 15.9137 123.609 15.2795C124.015 14.6453 124.57 14.1498 125.273 13.7931C125.987 13.4364 126.804 13.258 127.726 13.258C128.647 13.258 129.465 13.4364 130.178 13.7931C130.892 14.1498 131.447 14.6453 131.843 15.2795C132.249 15.9137 132.452 16.642 132.452 17.4644C132.452 18.2869 132.249 19.0152 131.843 19.6494C131.447 20.2836 130.892 20.784 130.178 21.1507C129.465 21.5074 128.647 21.6857 127.726 21.6857ZM127.726 19.0697C127.974 19.0697 128.196 19.0103 128.395 18.8914C128.593 18.7725 128.751 18.5941 128.87 18.3563C128.989 18.1085 129.049 17.8113 129.049 17.4644C129.049 17.1077 128.989 16.8154 128.87 16.5875C128.751 16.3497 128.593 16.1713 128.395 16.0524C128.196 15.9335 127.974 15.874 127.726 15.874C127.478 15.874 127.255 15.9335 127.057 16.0524C126.859 16.1713 126.7 16.3497 126.581 16.5875C126.462 16.8154 126.403 17.1077 126.403 17.4644C126.403 17.8113 126.462 18.1085 126.581 18.3563C126.7 18.5941 126.859 18.7725 127.057 18.8914C127.255 19.0103 127.478 19.0697 127.726 19.0697ZM135.278 21.5371L132.454 13.4066H135.635L137.775 20.0061H136.244L138.488 13.4066H141.342L143.483 20.0061H141.996L144.211 13.4066H147.154L144.33 21.5371H141.06L139.351 16.3051H140.332L138.548 21.5371H135.278Z" fill="#009FBD"/>
</svg>
