<svg width="13" height="17" viewBox="0 0 13 17" fill="none" xmlns="http://www.w3.org/2000/svg">
<path id="Vector" d="M12.6165 10.5725L11.7832 9.18919C11.6082 8.88086 11.4499 8.29753 11.4499 7.95586V5.84753C11.4489 4.91756 11.1846 4.00687 10.6876 3.22084C10.1906 2.4348 9.48124 1.80554 8.64154 1.40586C8.42722 1.02531 8.11462 0.709315 7.73641 0.490892C7.3582 0.272469 6.92827 0.159639 6.49154 0.164195C5.58321 0.164195 4.76654 0.655862 4.3332 1.43086C2.7082 2.2392 1.5832 3.91419 1.5832 5.84753V7.95586C1.5832 8.29753 1.42487 8.88086 1.24987 9.18086L0.408204 10.5725C0.0748711 11.1309 -0.000129126 11.7475 0.208204 12.3142C0.408204 12.8725 0.883205 13.3059 1.49987 13.5142C3.11654 14.0642 4.81654 14.3309 6.51654 14.3309C8.21654 14.3309 9.91654 14.0642 11.5332 13.5225C12.1165 13.3309 12.5665 12.8892 12.7832 12.3142C12.9999 11.7392 12.9415 11.1059 12.6165 10.5725ZM8.85821 15.1725C8.68296 15.6577 8.3626 16.0771 7.94067 16.3738C7.51873 16.6705 7.01568 16.8301 6.49987 16.8309C5.84154 16.8309 5.19154 16.5642 4.73321 16.0892C4.46654 15.8392 4.26654 15.5059 4.14987 15.1642C4.25821 15.1809 4.36654 15.1892 4.4832 15.2059C4.67487 15.2309 4.87487 15.2559 5.07487 15.2725C5.54987 15.3142 6.03321 15.3392 6.51654 15.3392C6.99154 15.3392 7.46654 15.3142 7.93321 15.2725C8.10821 15.2559 8.28321 15.2475 8.44987 15.2225L8.85821 15.1725Z" fill="white"/>
</svg>
