<svg width="16" height="16" viewBox="0 0 16 16" fill="none" xmlns="http://www.w3.org/2000/svg">
<g id="Iconsax/Linear/setting2">
<path id="Vector" d="M8 10C8.53043 10 9.03914 9.78929 9.41421 9.41421C9.78929 9.03914 10 8.53043 10 8C10 7.46957 9.78929 6.96086 9.41421 6.58579C9.03914 6.21071 8.53043 6 8 6C7.46957 6 6.96086 6.21071 6.58579 6.58579C6.21071 6.96086 6 7.46957 6 8C6 8.53043 6.21071 9.03914 6.58579 9.41421C6.96086 9.78929 7.46957 10 8 10Z" stroke="#202225" stroke-miterlimit="10" stroke-linecap="round" stroke-linejoin="round"/>
<path id="Vector_2" d="M1.3335 8.5863V7.41297C1.3335 6.71963 1.90016 6.1463 2.60016 6.1463C3.80683 6.1463 4.30016 5.29297 3.6935 4.2463C3.34683 3.6463 3.5535 2.8663 4.16016 2.51963L5.3135 1.85963C5.84016 1.5463 6.52016 1.73297 6.8335 2.25963L6.90683 2.3863C7.50683 3.43297 8.4935 3.43297 9.10016 2.3863L9.1735 2.25963C9.48683 1.73297 10.1668 1.5463 10.6935 1.85963L11.8468 2.51963C12.4535 2.8663 12.6602 3.6463 12.3135 4.2463C11.7068 5.29297 12.2002 6.1463 13.4068 6.1463C14.1002 6.1463 14.6735 6.71297 14.6735 7.41297V8.5863C14.6735 9.27963 14.1068 9.85297 13.4068 9.85297C12.2002 9.85297 11.7068 10.7063 12.3135 11.753C12.6602 12.3596 12.4535 13.133 11.8468 13.4796L10.6935 14.1396C10.1668 14.453 9.48683 14.2663 9.1735 13.7396L9.10016 13.613C8.50016 12.5663 7.5135 12.5663 6.90683 13.613L6.8335 13.7396C6.52016 14.2663 5.84016 14.453 5.3135 14.1396L4.16016 13.4796C3.86956 13.3123 3.65722 13.0365 3.56973 12.7128C3.48224 12.3891 3.52675 12.0439 3.6935 11.753C4.30016 10.7063 3.80683 9.85297 2.60016 9.85297C1.90016 9.85297 1.3335 9.27963 1.3335 8.5863Z" stroke="#202225" stroke-miterlimit="10" stroke-linecap="round" stroke-linejoin="round"/>
</g>
</svg>
