<svg width="151" height="151" viewBox="0 0 151 151" fill="none" xmlns="http://www.w3.org/2000/svg">
<path d="M132.88 43.9158L107.084 18.12C104.064 15.1 98.0241 12.5833 93.7458 12.5833H57.2541C52.9758 12.5833 46.9358 15.1 43.9158 18.12L18.1199 43.9158C15.0999 46.9358 12.5833 52.9758 12.5833 57.2542V93.7458C12.5833 98.0241 15.0999 104.064 18.1199 107.084L43.9158 132.88C46.9358 135.9 52.9758 138.417 57.2541 138.417H93.7458C98.0241 138.417 104.064 135.9 107.084 132.88L132.88 107.084C135.9 104.064 138.417 98.0241 138.417 93.7458V57.2542C138.417 52.9758 135.9 46.9358 132.88 43.9158ZM100.855 94.1862C102.68 96.0108 102.68 99.0308 100.855 100.855C99.9116 101.799 98.7162 102.24 97.5208 102.24C96.3253 102.24 95.1299 101.799 94.1862 100.855L75.4999 82.1692L56.8137 100.855C55.8699 101.799 54.6745 102.24 53.4791 102.24C52.2837 102.24 51.0883 101.799 50.1445 100.855C49.2669 99.9674 48.7748 98.7693 48.7748 97.5208C48.7748 96.2724 49.2669 95.0742 50.1445 94.1862L68.8308 75.5L50.1445 56.8137C49.2669 55.9257 48.7748 54.7276 48.7748 53.4791C48.7748 52.2307 49.2669 51.0326 50.1445 50.1446C51.9691 48.32 54.9891 48.32 56.8137 50.1446L75.4999 68.8308L94.1862 50.1446C96.0108 48.32 99.0308 48.32 100.855 50.1446C102.68 51.9691 102.68 54.9891 100.855 56.8137L82.1691 75.5L100.855 94.1862Z" fill="#E32424"/>
</svg>
