<svg width="40" height="40" viewBox="0 0 40 40" fill="none" xmlns="http://www.w3.org/2000/svg">
<path d="M30.0665 22.5835C29.3665 23.2668 28.9665 24.2501 29.0665 25.3001C29.2165 27.1001 30.8665 28.4168 32.6665 28.4168H35.8332V30.4001C35.8332 33.8501 33.0165 36.6668 29.5665 36.6668H12.7165C13.2332 36.2335 13.6832 35.7001 14.0332 35.1001C14.6498 34.1001 14.9998 32.9168 14.9998 31.6668C14.9997 30.4109 14.6447 29.1806 13.9758 28.1176C13.3069 27.0547 12.3512 26.2023 11.219 25.6589C10.0867 25.1154 8.82399 24.9029 7.57623 25.0458C6.32848 25.1888 5.1465 25.6813 4.1665 26.4668V19.1835C4.1665 15.7335 6.98317 12.9168 10.4332 12.9168H29.5665C33.0165 12.9168 35.8332 15.7335 35.8332 19.1835V21.5835H32.4665C31.5332 21.5835 30.6832 21.9501 30.0665 22.5835Z" stroke="white" stroke-width="2.5" stroke-linecap="round" stroke-linejoin="round"/>
<path d="M4.1665 20.6829V13.0663C4.1665 11.0829 5.38317 9.31626 7.23317 8.61626L20.4665 3.61626C20.946 3.43558 21.4621 3.37394 21.9707 3.43664C22.4792 3.49935 22.965 3.68452 23.3862 3.97627C23.8074 4.26801 24.1516 4.65762 24.3891 5.11164C24.6266 5.56566 24.7504 6.07053 24.7498 6.58293V12.9163M11.6665 19.9996H23.3332M37.5982 23.2829V26.7163C37.5982 27.6329 36.8648 28.3829 35.9315 28.4163H32.6648C30.8648 28.4163 29.2148 27.0996 29.0648 25.2996C28.9648 24.2496 29.3648 23.2663 30.0648 22.5829C30.6815 21.9496 31.5315 21.5829 32.4648 21.5829H35.9315C36.8648 21.6163 37.5982 22.3663 37.5982 23.2829Z" stroke="white" stroke-width="2.5" stroke-linecap="round" stroke-linejoin="round"/>
<path d="M14.9998 31.6669C14.9998 32.9169 14.6499 34.1002 14.0332 35.1002C13.6832 35.7002 13.2332 36.2335 12.7165 36.6669C11.5499 37.7169 10.0165 38.3335 8.33318 38.3335C7.18412 38.3359 6.05425 38.039 5.05479 37.4721C4.05533 36.9051 3.22074 36.0877 2.63318 35.1002C1.99875 34.0676 1.66406 32.8788 1.66652 31.6669C1.66652 29.5669 2.63318 27.6835 4.16652 26.4669C5.14651 25.6814 6.32849 25.1888 7.57625 25.0459C8.82401 24.9029 10.0868 25.1154 11.219 25.6589C12.3512 26.2024 13.3069 27.0547 13.9758 28.1177C14.6447 29.1806 14.9997 30.411 14.9998 31.6669Z" stroke="white" stroke-width="2.5" stroke-miterlimit="10" stroke-linecap="round" stroke-linejoin="round"/>
<path d="M5.73535 31.6667L7.38535 33.3167L10.9354 30.0334" stroke="white" stroke-width="2.5" stroke-linecap="round" stroke-linejoin="round"/>
</svg>
