<svg width="40" height="40" viewBox="0 0 40 40" fill="none" xmlns="http://www.w3.org/2000/svg">
<path d="M18.333 3.33331H14.9997C6.66634 3.33331 3.33301 6.66665 3.33301 15V25C3.33301 33.3333 6.66634 36.6666 14.9997 36.6666H24.9997C33.333 36.6666 36.6663 33.3333 36.6663 25V21.6666" stroke="white" stroke-width="2.5" stroke-linecap="round" stroke-linejoin="round"/>
<path d="M26.7331 5.03333L13.5998 18.1667C13.0998 18.6667 12.5998 19.65 12.4998 20.3667L11.7831 25.3833C11.5165 27.2 12.7998 28.4667 14.6165 28.2167L19.6331 27.5C20.3331 27.4 21.3165 26.9 21.8331 26.4L34.9665 13.2667C37.2331 11 38.2998 8.36666 34.9665 5.03333C31.6331 1.69999 28.9998 2.76666 26.7331 5.03333Z" stroke="white" stroke-width="2.5" stroke-miterlimit="10" stroke-linecap="round" stroke-linejoin="round"/>
<path d="M24.8496 6.91669C25.4023 8.87913 26.4496 10.6668 27.8912 12.1084C29.3328 13.5501 31.1205 14.5974 33.0829 15.15" stroke="white" stroke-width="2.5" stroke-miterlimit="10" stroke-linecap="round" stroke-linejoin="round"/>
</svg>
